<svg width="24" height="18" viewBox="0 0 24 18" fill="none" xmlns="http://www.w3.org/2000/svg">
<path d="M10.3816 9.56746C11.0557 8.95074 11.5476 8.10504 11.7891 7.14801C12.0306 6.19097 12.0096 5.1702 11.729 4.22771C11.4484 3.28521 10.9222 2.46786 10.2236 1.88937C9.52494 1.31087 8.68865 1 7.83102 1C6.9734 1 6.1371 1.31087 5.43847 1.88937C4.73985 2.46786 4.21363 3.28521 3.93304 4.22771C3.65245 5.1702 3.63144 6.19097 3.87292 7.14801C4.1144 8.10504 4.60638 8.95074 5.2804 9.56746C4.12545 10.1056 3.11772 10.9981 2.36464 12.1499C1.61155 13.3017 1.14135 14.6696 1.00415 16.1077C0.994216 16.2127 1.00216 16.3189 1.02754 16.4204C1.05291 16.5218 1.09522 16.6164 1.15204 16.6988C1.26678 16.8652 1.43369 16.9718 1.61602 16.9952C1.79836 17.0185 1.98119 16.9566 2.12431 16.8232C2.26742 16.6897 2.35909 16.4956 2.37915 16.2836C2.53011 14.7206 3.17093 13.2772 4.17917 12.229C5.18741 11.1807 6.49239 10.6013 7.84477 10.6013C9.19715 10.6013 10.5021 11.1807 11.5104 12.229C12.5186 13.2772 13.1594 14.7206 13.3104 16.2836C13.3291 16.48 13.4097 16.6615 13.5367 16.7929C13.6636 16.9243 13.8279 16.9964 13.9979 16.9952H14.0735C14.2537 16.9711 14.4185 16.8651 14.5318 16.7003C14.6451 16.5356 14.6979 16.3254 14.6785 16.1157C14.5407 14.6735 14.0679 13.3021 13.311 12.1485C12.554 10.995 11.5414 10.1027 10.3816 9.56746ZM7.83102 8.99978C7.28712 8.99978 6.75544 8.81222 6.3032 8.4608C5.85097 8.10938 5.49849 7.6099 5.29035 7.02551C5.08221 6.44112 5.02775 5.79808 5.13386 5.1777C5.23997 4.55732 5.50188 3.98746 5.88648 3.54019C6.27107 3.09292 6.76108 2.78833 7.29452 2.66492C7.82797 2.54152 8.38091 2.60486 8.8834 2.84692C9.3859 3.08898 9.81539 3.49889 10.1176 4.02483C10.4197 4.55076 10.581 5.16909 10.581 5.80163C10.581 6.64983 10.2913 7.4633 9.77557 8.06307C9.25984 8.66284 8.56037 8.99978 7.83102 8.99978Z" fill="white" stroke="black" stroke-width="0.2"/>
<path d="M19.5424 7.85002C20.0843 7.35693 20.4798 6.68076 20.6739 5.91557C20.8681 5.15039 20.8512 4.33424 20.6256 3.58068C20.4 2.82712 19.977 2.17361 19.4153 1.71108C18.8536 1.24855 18.1813 1 17.4918 1C16.8023 1 16.13 1.24855 15.5683 1.71108C15.0067 2.17361 14.5836 2.82712 14.358 3.58068C14.1324 4.33424 14.1155 5.15039 14.3097 5.91557C14.5038 6.68076 14.8993 7.35693 15.4412 7.85002C14.5127 8.28027 13.7025 8.99388 13.0971 9.91478C12.4917 10.8357 12.1136 11.9293 12.0033 13.0792C11.9953 13.1631 12.0017 13.2481 12.0221 13.3292C12.0425 13.4103 12.0766 13.4859 12.1222 13.5518C12.2145 13.6849 12.3487 13.7701 12.4953 13.7888C12.6418 13.8074 12.7888 13.758 12.9039 13.6513C13.0189 13.5446 13.0926 13.3894 13.1088 13.2198C13.2301 11.9702 13.7453 10.8161 14.5559 9.97799C15.3665 9.1399 16.4156 8.6766 17.5029 8.6766C18.5901 8.6766 19.6392 9.1399 20.4498 9.97799C21.2604 10.8161 21.7756 11.9702 21.8969 13.2198C21.912 13.3769 21.9768 13.522 22.0788 13.627C22.1809 13.7321 22.313 13.7897 22.4497 13.7888H22.5105C22.6553 13.7695 22.7878 13.6848 22.8789 13.553C22.97 13.4213 23.0124 13.2533 22.9969 13.0856C22.886 11.9325 22.506 10.836 21.8974 9.91369C21.2889 8.99137 20.4748 8.27799 19.5424 7.85002ZM17.4918 7.39614C17.0545 7.39614 16.6271 7.24617 16.2635 6.9652C15.8999 6.68423 15.6166 6.28487 15.4492 5.81763C15.2819 5.35039 15.2381 4.83625 15.3234 4.34023C15.4087 3.84421 15.6193 3.38859 15.9285 3.03098C16.2377 2.67337 16.6316 2.42984 17.0605 2.33117C17.4894 2.23251 17.9339 2.28315 18.3379 2.47668C18.7418 2.67022 19.0871 2.99796 19.3301 3.41847C19.573 3.83897 19.7027 4.33335 19.7027 4.83909C19.7027 5.51726 19.4697 6.16766 19.0551 6.6472C18.6405 7.12674 18.0782 7.39614 17.4918 7.39614Z" fill="white" stroke="black" stroke-width="0.2"/>
</svg>
