<svg width="30" height="22" viewBox="0 0 30 22" fill="none" xmlns="http://www.w3.org/2000/svg">
<path d="M27.499 9.16661H8.51607L16.7695 3.13991C17.2405 2.79497 17.505 2.32714 17.505 1.83932C17.505 1.3515 17.2405 0.883663 16.7695 0.538724C16.2985 0.193785 15.6598 0 14.9938 0C14.3277 0 13.689 0.193785 13.218 0.538724L0.71283 9.69784C0.485134 9.87206 0.306647 10.0775 0.187612 10.3023C-0.0625373 10.7483 -0.0625373 11.2486 0.187612 11.6945C0.306647 11.9194 0.485134 12.1248 0.71283 12.299L13.218 21.4581C13.4505 21.6298 13.7271 21.7661 14.0319 21.8591C14.3367 21.9521 14.6636 22 14.9938 22C15.3239 22 15.6508 21.9521 15.9556 21.8591C16.2604 21.7661 16.537 21.6298 16.7695 21.4581C17.0039 21.2879 17.19 21.0853 17.317 20.862C17.4439 20.6388 17.5093 20.3994 17.5093 20.1576C17.5093 19.9157 17.4439 19.6763 17.317 19.4531C17.19 19.2299 17.0039 19.0273 16.7695 18.857L8.51607 12.8303H27.499C28.1623 12.8303 28.7984 12.6373 29.2675 12.2937C29.7365 11.9502 30 11.4843 30 10.9984C30 10.5126 29.7365 10.0467 29.2675 9.70314C28.7984 9.35961 28.1623 9.16661 27.499 9.16661Z" fill="white"/>
</svg>
