<svg width="90" height="42" viewBox="0 0 90 42" fill="none" xmlns="http://www.w3.org/2000/svg">
<path d="M89.9847 6.96072C89.1698 1.51904 70.3712 2.02155 71.2218 4.91443C72.0723 7.8073 64.8452 10.0347 64.8452 10.0347L54.4553 11.832C48.1348 7.36817 45.2776 5.96926 43.0875 4.71976C34.577 -0.128862 25.6539 9.86265 25.6539 9.86265C25.6539 9.86265 17.3929 8.96627 27.1767 0.269531C-6.87058 15.8069 9.33563 18.3964 9.33563 18.3964H18.9056L17.3776 20.5921C15.865 19.999 14.1843 19.664 12.4119 19.664C5.55656 19.664 0 24.6077 0 30.6968C0 36.7904 5.55656 41.7341 12.4119 41.7341C19.2672 41.7341 24.8237 36.7904 24.8237 30.6968C24.8237 27.2788 23.0717 24.2274 20.3214 22.2038L21.6354 20.3114L34.8724 33.4222H36.0234H60.0272H63.0015C64.3665 38.1938 69.2253 41.7341 75.0161 41.7341C81.8714 41.7341 87.4229 36.7904 87.4229 30.6968C87.4229 24.6077 81.8714 19.664 75.0161 19.664C68.7516 19.664 63.5872 23.7928 62.7367 29.153H62.6195C62.6195 29.153 61.5347 25.6082 59.6044 21.2168C66.0523 19.3018 90.6927 11.6916 89.9847 6.96072ZM12.417 37.6324C8.11329 37.6324 4.61943 34.5223 4.61943 30.6968C4.61943 26.8713 8.11839 23.7657 12.417 23.7657C13.2981 23.7657 14.1384 23.8969 14.9278 24.1414L12.2387 28.0167C12.2183 28.0438 12.1827 28.062 12.1623 28.0937L11.0367 29.737C11.0316 29.7551 11.0367 29.7642 11.0265 29.7732L10.9451 29.8909L10.9705 29.9091C10.614 30.6062 10.8636 31.4483 11.6224 31.8603C12.3762 32.2677 13.3184 32.0821 13.8532 31.4845L13.8889 31.5072L13.9907 31.3623C13.9958 31.3532 14.0111 31.3442 14.0111 31.3442L14.5153 30.6108L17.8767 25.7531C19.3232 27.0117 20.2196 28.7637 20.2196 30.7013C20.2145 34.5223 16.7155 37.6324 12.417 37.6324ZM75.0212 23.7611C79.3198 23.7611 82.8187 26.8713 82.8187 30.6923C82.8187 34.5223 79.3147 37.6279 75.0212 37.6279C71.8024 37.6279 69.0317 35.8849 67.8451 33.4131H77.3131V33.3769H77.5321C78.8512 33.395 79.9361 32.4714 79.9513 31.2944C79.9768 30.1264 78.9225 29.1666 77.6085 29.144L74.6392 29.1123C74.4865 29.1077 74.3388 29.1213 74.1911 29.144H67.4223C68.2067 26.07 71.3084 23.7611 75.0212 23.7611Z" fill="white"/>
</svg>
