<svg width="115" height="51" viewBox="0 0 115 51" fill="none" xmlns="http://www.w3.org/2000/svg">
<path d="M61.3269 0.148228C53.6041 0.746864 44.8912 4.17544 37.614 9.48156C36.0794 10.5972 34.7675 11.4135 34.6932 11.2775C34.52 10.9782 32.6883 11.2775 31.8714 11.7129C31.5249 11.9033 31.0546 12.3115 30.8071 12.6108C30.3863 13.1278 30.3863 13.2094 30.7576 14.0258L31.1784 14.8965L29.5942 14.6788C28.7279 14.5428 26.4259 14.4339 24.4457 14.4339C21.5002 14.4612 20.4853 14.57 18.7526 15.087C16.0051 15.8761 13.1338 17.5904 11.1536 19.5768C9.37144 21.3727 8.52985 22.9237 8.52985 24.4475C8.52985 25.6448 7.9853 26.2163 5.4358 27.604C3.77738 28.5292 3.33184 28.4748 2.9358 27.3047C2.81203 26.951 2.56451 27.1686 1.74768 28.3931C1.15362 29.2367 0.609063 30.3523 0.534805 30.8421C0.435795 31.3319 0.609063 33.2911 0.906092 35.2503C1.40114 38.4884 1.42589 38.8421 1.05461 39.3863C0.856587 39.7129 0.68332 40.2843 0.68332 40.6108C0.68332 41.5904 2.26748 43.3319 3.60411 43.7945C7.515 45.2095 17.6883 46.5972 34.718 48.0394C46.7972 49.0734 51.2279 49.0462 60.0398 47.8489C63.2823 47.4135 63.3318 47.4135 63.8764 47.9578C64.7922 48.9101 66.4011 49.6448 68.2081 49.9986C72.911 50.8693 77.7873 48.0666 79.916 43.2503L80.7576 41.2911L86.9457 38.951C94.619 36.0666 95.015 35.9578 101.847 35.1142L103.109 34.9782L103.282 35.8489C103.604 37.5088 103.951 37.6992 106.599 37.6992C109.644 37.672 110.807 37.3727 111.525 36.4203C113.035 34.3795 114.396 29.7809 114.718 25.672C114.941 22.7061 113.852 12.7469 113.159 11.2775C112.787 10.4339 112.391 10.2163 110.708 9.88972C107.911 9.3455 106.649 9.31829 105.04 9.80809C104 10.1074 102.886 10.2435 101.847 10.1618C100.287 10.053 100.164 9.99857 98.8764 8.66523C98.1338 7.87612 97.1932 7.16863 96.8219 7.087C96.4259 6.97816 95.7081 6.67884 95.2378 6.37952C91.7972 4.20265 86.0794 1.72646 83.1091 1.12782C79.0002 0.257069 66.7972 -0.287148 61.3269 0.148228ZM71.6239 1.53598C77.0447 2.13462 77.6635 2.70605 77.1932 6.73326C76.8962 9.29108 75.5596 15.3591 75.213 15.7401C75.0893 15.8761 73.6784 15.8217 72.0695 15.6584C69.817 15.4407 68.4556 15.4407 66.2774 15.6856C63.9259 15.9578 60.6833 15.9305 48.5794 15.5496C40.411 15.3047 33.7031 15.0598 33.6536 15.0054C33.5051 14.8149 37.9606 10.9237 40.1635 9.31829C45.7328 5.29108 52.6388 2.35231 58.4804 1.53598C61.0051 1.18224 68.4804 1.18224 71.6239 1.53598ZM85.5101 3.03258C86.5497 3.25027 88.1091 3.74006 88.9259 4.0938C90.8813 4.88292 95.1635 7.22306 95.4853 7.63122C95.8318 8.0938 94.916 9.88972 93.6536 11.1686L92.614 12.2571L93.0596 13.0734C93.7031 14.2435 93.6289 14.7605 92.6883 15.7945C91.7724 16.8013 90.7328 17.1822 88.1833 17.4543C86.5992 17.6176 86.3021 17.7537 84.8665 18.9509C84.0002 19.6856 83.1833 20.2843 83.0348 20.2843C82.911 20.2843 81.9705 19.8489 80.9804 19.3319C79.718 18.6516 79.1982 18.2435 79.2972 17.9714C79.421 17.672 79.817 17.7809 81.2279 18.57L83.0348 19.5496L84.6437 18.1346C86.1041 16.8829 86.4011 16.7469 87.4903 16.7469C90.4358 16.7469 92.9853 15.3591 92.6635 13.9441C92.3912 12.7741 91.0794 12.0938 88.9507 12.0938C86.8219 12.0666 86.3516 12.2843 84.916 13.9169C83.6536 15.3319 82.02 15.9305 79.2229 16.0122L77.2922 16.0666L77.3665 14.9782C77.4655 13.1822 78.6536 8.28428 79.4457 6.40673C80.1883 4.55639 81.1536 3.25027 81.9952 2.86932C82.7378 2.51557 83.4308 2.54279 85.5101 3.03258ZM111.822 15.6584C113.109 17.0734 114.05 20.5564 114.05 24.0394C114.05 28.0122 112.49 33.9169 110.881 36.0666C110.411 36.7197 110.238 36.7469 107.391 36.8557L104.396 36.9373L104.149 36.2027C103.827 35.2503 103.802 35.2775 104.47 35.0054C105.164 34.7061 105.609 33.1822 106.376 28.3115C107.441 21.6448 108.654 17.3183 109.842 15.9305C110.659 14.9782 111.129 14.8965 111.822 15.6584ZM62.1685 19.4135C55.6338 24.6108 48.1091 29.3455 44.3962 30.5972C42.7378 31.1686 40.7823 31.3591 40.7823 30.951C40.7823 30.5428 41.9209 28.7469 42.9606 27.5224C43.9011 26.4067 44.3714 26.1346 47.7625 24.7469C52.1932 22.9237 56.7724 20.7197 58.4804 19.5224C59.5447 18.7605 59.9408 18.6516 61.4259 18.6516H63.1338L62.1685 19.4135ZM76.0794 22.5156C77.6635 23.6856 79.421 26.5972 80.1883 29.2639C80.6586 30.9782 80.7576 31.9033 80.7576 34.9782C80.7576 38.1346 80.6586 38.9237 80.1388 40.6924C79.0249 44.4748 76.6982 47.3319 73.7031 48.638C70.9556 49.8353 65.8318 49.2095 64.4457 47.5224C64.0744 47.0598 64.0744 46.951 64.5447 45.8353C64.817 45.1822 65.0398 44.1482 65.0398 43.5768V42.5156L65.7576 43.604C67.2922 45.9169 69.6932 47.4952 71.7229 47.4952C72.9853 47.4952 74.8417 46.6788 75.9061 45.672C78.8764 42.8965 80.3368 37.8625 79.5695 33.019C78.6289 27.087 75.0893 23.1686 71.0794 23.6312C69.2972 23.8217 69.4952 23.3047 71.7229 21.9986C72.0695 21.8081 72.911 21.6448 73.6041 21.6448C74.6437 21.6448 75.114 21.8081 76.0794 22.5156ZM6.9952 35.468C11.5249 36.5564 27.4655 38.189 38.1338 38.6788C40.3368 38.7877 42.2922 38.9782 42.4655 39.1414C42.911 39.5496 42.6388 41.5904 41.9457 42.951C41.6487 43.5224 41.0299 44.2571 40.5348 44.5836C39.6932 45.155 39.4952 45.1822 31.9952 45.155C21.6487 45.155 13.6536 44.3387 7.86154 42.7333C3.40609 41.4816 3.05956 41.1278 2.16847 36.6924L1.72292 34.3795L2.61401 34.5156C3.10906 34.57 5.08926 35.0054 6.9952 35.468Z" fill="white"/>
<path d="M91.7725 12.1224C91.7725 12.2585 91.8962 12.3945 92.0447 12.3945C92.1685 12.3945 92.218 12.2585 92.1437 12.1224C92.0695 11.9592 91.9457 11.8503 91.8715 11.8503C91.822 11.8503 91.7725 11.9592 91.7725 12.1224Z" fill="white"/>
<path d="M110.164 17.5918C109.545 17.8367 108.679 19.5238 108.183 21.5102C107.614 23.7143 107.49 29.2653 107.936 32.068C108.159 33.4014 108.505 34.7619 108.703 35.1429C109.842 37.0204 111.773 34.7619 112.738 30.4354C113.332 27.7415 113.332 21.4014 112.738 19.7143C112.094 17.8911 111.203 17.1565 110.164 17.5918Z" fill="white"/>
</svg>
