<svg width="20" height="20" viewBox="0 0 20 20" fill="none" xmlns="http://www.w3.org/2000/svg">
<path d="M18.3332 6.03465C18.3338 5.92498 18.3128 5.81626 18.2713 5.71473C18.2299 5.6132 18.1688 5.52085 18.0915 5.44298L14.5582 1.90965C14.4803 1.83241 14.388 1.77131 14.2864 1.72984C14.1849 1.68837 14.0762 1.66735 13.9665 1.66798C13.8568 1.66735 13.7481 1.68837 13.6466 1.72984C13.5451 1.77131 13.4527 1.83241 13.3749 1.90965L11.0165 4.26798L1.90818 13.3763C1.83095 13.4542 1.76985 13.5465 1.72838 13.6481C1.6869 13.7496 1.66588 13.8583 1.66652 13.968V17.5013C1.66652 17.7223 1.75432 17.9343 1.9106 18.0906C2.06688 18.2469 2.27884 18.3347 2.49985 18.3347H6.03318C6.14979 18.341 6.26643 18.3228 6.37553 18.2811C6.48464 18.2395 6.58378 18.1754 6.66652 18.093L15.7249 8.98465L18.0915 6.66798C18.1676 6.58722 18.2296 6.49426 18.2749 6.39298C18.2829 6.32656 18.2829 6.25941 18.2749 6.19298C18.2787 6.15419 18.2787 6.11511 18.2749 6.07632L18.3332 6.03465ZM5.69152 16.668H3.33318V14.3097L11.6082 6.03465L13.9665 8.39298L5.69152 16.668ZM15.1415 7.21798L12.7832 4.85965L13.9665 3.68465L16.3165 6.03465L15.1415 7.21798Z" fill="white"/>
</svg>
