<svg width="62" height="50" viewBox="0 0 62 50" fill="none" xmlns="http://www.w3.org/2000/svg">
<path fill-rule="evenodd" clip-rule="evenodd" d="M1.04567 1.21071C0.166992 2.08939 0.166992 3.5036 0.166992 6.33203V16.832C0.166992 17.7748 0.166992 18.2462 0.459885 18.5391C0.752779 18.832 1.22418 18.832 2.16699 18.832H3.41699C6.24542 18.832 7.65963 18.832 8.53831 19.7107C9.41699 20.5894 9.41699 22.0036 9.41699 24.832V25.1654C9.41699 27.9938 9.41699 29.408 8.53831 30.2867C7.65963 31.1654 6.24542 31.1654 3.41699 31.1654H2.16699C1.22418 31.1654 0.752779 31.1654 0.459885 31.4583C0.166992 31.7512 0.166992 32.2226 0.166992 33.1654V43.6654C0.166992 46.4938 0.166992 47.908 1.04567 48.7867C1.92435 49.6654 3.33857 49.6654 6.167 49.6654H55.8337C58.6621 49.6654 60.0763 49.6654 60.955 48.7867C61.8337 47.908 61.8337 46.4938 61.8337 43.6654V33.1654C61.8337 32.2226 61.8337 31.7512 61.5408 31.4583C61.2479 31.1654 60.7765 31.1654 59.8337 31.1654H58.5837C55.7552 31.1654 54.341 31.1654 53.4623 30.2867C52.5837 29.408 52.5837 27.9938 52.5837 25.1654V24.832C52.5837 22.0036 52.5837 20.5894 53.4623 19.7107C54.341 18.832 55.7552 18.832 58.5837 18.832H59.8337C60.7765 18.832 61.2479 18.832 61.5408 18.5391C61.8337 18.2462 61.8337 17.7748 61.8337 16.832V6.33203C61.8337 3.5036 61.8337 2.08939 60.955 1.21071C60.0763 0.332031 58.6621 0.332031 55.8337 0.332031H6.16699C3.33856 0.332031 1.92435 0.332031 1.04567 1.21071ZM30.8324 18.8504C30.4113 18.9433 30.1521 19.6139 29.6337 20.9551C29.3389 21.7178 29.1915 22.0991 28.9157 22.3585C28.8383 22.4312 28.7543 22.496 28.6649 22.552C28.3461 22.7514 27.9482 22.7883 27.1523 22.8623C25.8049 22.9875 25.1313 23.0501 24.9256 23.4488C24.883 23.5313 24.854 23.6207 24.8399 23.7132C24.7717 24.1598 25.2669 24.6274 26.2574 25.5626L26.5324 25.8222C26.9955 26.2594 27.227 26.4781 27.361 26.7509C27.4413 26.9145 27.4952 27.0908 27.5204 27.2725C27.5625 27.5756 27.4947 27.8927 27.3591 28.527L27.3106 28.7536C27.0674 29.891 26.9459 30.4598 27.0976 30.7393C27.234 30.9904 27.4851 31.1512 27.7625 31.1649C28.0714 31.1802 28.5065 30.8122 29.3769 30.0762C29.9503 29.5913 30.237 29.3489 30.5553 29.2542C30.8461 29.1676 31.1545 29.1676 31.4454 29.2542C31.7637 29.3489 32.0504 29.5913 32.6238 30.0762C33.4941 30.8122 33.9293 31.1802 34.2381 31.1649C34.5155 31.1512 34.7667 30.9904 34.903 30.7393C35.0548 30.4598 34.9332 29.891 34.69 28.7536L34.6416 28.527L34.6416 28.5269C34.506 27.8927 34.4382 27.5756 34.4803 27.2725C34.5055 27.0908 34.5594 26.9145 34.6397 26.7509C34.7736 26.4781 35.0051 26.2594 35.4682 25.8222L35.7433 25.5625C36.7337 24.6274 37.229 24.1598 37.1608 23.7132C37.1467 23.6207 37.1177 23.5313 37.0751 23.4488C36.8694 23.0501 36.1957 22.9875 34.8484 22.8623C34.0525 22.7883 33.6545 22.7514 33.3358 22.552C33.2463 22.496 33.1624 22.4312 33.085 22.3585C32.8092 22.0991 32.6618 21.7178 32.367 20.9551C31.8486 19.6139 31.5894 18.9433 31.1683 18.8504C31.0575 18.8259 30.9431 18.8259 30.8324 18.8504Z" fill="white"/>
</svg>
