<svg width="74" height="74" viewBox="0 0 74 74" fill="none" xmlns="http://www.w3.org/2000/svg">
<path d="M6.16699 19.418C6.16699 17.5324 6.16699 16.5895 6.75278 16.0038C7.33857 15.418 8.28137 15.418 10.167 15.418H63.8337C65.7193 15.418 66.6621 15.418 67.2479 16.0038C67.8337 16.5895 67.8337 17.5324 67.8337 19.418V29.8346C67.8337 30.306 67.8337 30.5417 67.6872 30.6882C67.5408 30.8346 67.3051 30.8346 66.8337 30.8346H7.16699C6.69559 30.8346 6.45989 30.8346 6.31344 30.6882C6.16699 30.5417 6.16699 30.306 6.16699 29.8346V19.418Z" fill="white"/>
<path fill-rule="evenodd" clip-rule="evenodd" d="M6.16699 63.8333C6.16699 65.719 6.16699 66.6618 6.75278 67.2475C7.33857 67.8333 8.28137 67.8333 10.167 67.8333H63.8337C65.7193 67.8333 66.6621 67.8333 67.2479 67.2475C67.8337 66.6618 67.8337 65.719 67.8337 63.8333V38C67.8337 37.5286 67.8337 37.2929 67.6872 37.1464C67.5408 37 67.3051 37 66.8337 37H7.16699C6.69559 37 6.45989 37 6.31344 37.1464C6.16699 37.2929 6.16699 37.5286 6.16699 38V63.8333ZM21.5837 44.1667C21.5837 43.6953 21.5837 43.4596 21.7301 43.3131C21.8766 43.1667 22.1123 43.1667 22.5837 43.1667H32.917C33.3884 43.1667 33.6241 43.1667 33.7705 43.3131C33.917 43.4596 33.917 43.6953 33.917 44.1667V48.3333C33.917 48.8047 33.917 49.0404 33.7705 49.1869C33.6241 49.3333 33.3884 49.3333 32.917 49.3333H22.5837C22.1123 49.3333 21.8766 49.3333 21.7301 49.1869C21.5837 49.0404 21.5837 48.8047 21.5837 48.3333V44.1667ZM21.7301 55.6464C21.5837 55.7929 21.5837 56.0286 21.5837 56.5V60.6667C21.5837 61.1381 21.5837 61.3738 21.7301 61.5202C21.8766 61.6667 22.1123 61.6667 22.5837 61.6667H32.917C33.3884 61.6667 33.6241 61.6667 33.7705 61.5202C33.917 61.3738 33.917 61.1381 33.917 60.6667V56.5C33.917 56.0286 33.917 55.7929 33.7705 55.6464C33.6241 55.5 33.3884 55.5 32.917 55.5H22.5837C22.1123 55.5 21.8766 55.5 21.7301 55.6464ZM40.0837 44.1667C40.0837 43.6953 40.0837 43.4596 40.2301 43.3131C40.3766 43.1667 40.6123 43.1667 41.0837 43.1667H51.417C51.8884 43.1667 52.1241 43.1667 52.2705 43.3131C52.417 43.4596 52.417 43.6953 52.417 44.1667V48.3333C52.417 48.8047 52.417 49.0404 52.2705 49.1869C52.1241 49.3333 51.8884 49.3333 51.417 49.3333H41.0837C40.6123 49.3333 40.3766 49.3333 40.2301 49.1869C40.0837 49.0404 40.0837 48.8047 40.0837 48.3333V44.1667ZM40.2301 55.6464C40.0837 55.7929 40.0837 56.0286 40.0837 56.5V60.6667C40.0837 61.1381 40.0837 61.3738 40.2301 61.5202C40.3766 61.6667 40.6123 61.6667 41.0837 61.6667H51.417C51.8884 61.6667 52.1241 61.6667 52.2705 61.5202C52.417 61.3738 52.417 61.1381 52.417 60.6667V56.5C52.417 56.0286 52.417 55.7929 52.2705 55.6464C52.1241 55.5 51.8884 55.5 51.417 55.5H41.0837C40.6123 55.5 40.3766 55.5 40.2301 55.6464Z" fill="white"/>
<path d="M21.583 9.25L21.583 18.5" stroke="white" stroke-width="2" stroke-linecap="round"/>
<path d="M52.417 9.25L52.417 18.5" stroke="white" stroke-width="2" stroke-linecap="round"/>
</svg>
