<svg width="45" height="25" viewBox="0 0 45 25" fill="none" xmlns="http://www.w3.org/2000/svg">
<path d="M35.1115 1.20392C35.1115 1.45083 34.9226 1.49713 33.1448 1.66688C32.0559 1.77491 30.6448 1.96009 30.0003 2.08355C19.8337 4.13602 11.0559 6.62059 7.167 8.56503C6.37812 8.96627 5.48923 9.39836 5.20034 9.53725C4.90034 9.67614 4.667 9.81503 4.67812 9.86133C4.67812 9.90762 5.57812 10.957 6.67812 12.1761C7.80034 13.4107 8.72256 14.5527 8.78923 14.7687C8.84478 14.9694 8.88923 15.4169 8.88923 15.7718C8.88923 16.2039 8.93367 16.3737 9.03367 16.3119C11.0337 15.1391 14.7781 12.6545 16.0003 11.6977C18.5115 9.72244 19.2892 9.21318 21.3003 8.28725C24.1559 6.97552 28.4114 5.44775 30.8892 4.84589C32.0114 4.56812 33.9892 4.61441 35.4448 4.95392C36.0226 5.07738 36.4003 5.06194 37.3337 4.84589C37.9781 4.70701 38.5892 4.53725 38.7003 4.49096C38.8448 4.4138 38.5559 4.16688 37.6781 3.62676C37.0003 3.21009 36.467 2.85515 36.4781 2.82429C36.5003 2.80886 37.1115 3.1175 37.8448 3.51873C39.5781 4.47552 39.6003 4.64528 38.0892 5.01565C36.4003 5.41688 36.4226 5.40145 37.0892 6.06503C37.3892 6.3891 37.8226 6.74404 38.0448 6.8675C38.8115 7.31503 39.6892 7.05268 39.9781 6.29651C40.1448 5.84898 40.1003 3.1638 39.9226 2.91688C39.8003 2.74713 35.5337 0.941573 35.2559 0.926142C35.1781 0.926142 35.1115 1.0496 35.1115 1.20392Z" fill="white"/>
<path d="M32.0335 5.91055L31.1224 6.5587L31.4891 7.87043C31.7779 8.91981 31.8335 9.35191 31.8002 10.0001C31.7335 11.1575 31.5557 10.9568 31.2113 9.32104C31.0557 8.56487 30.8779 7.70067 30.8113 7.40746L30.7002 6.86734L30.5557 7.29944C30.4224 7.68524 30.4335 7.94759 30.7002 9.45993C31.0557 11.4507 31.0557 11.6204 30.8335 12.0988C30.6668 12.4383 30.6779 12.4692 31.3002 12.9167C31.7891 13.2717 31.9891 13.3488 32.1224 13.2408C32.2446 13.1173 32.4668 13.1791 32.9779 13.5031C33.7002 13.9507 33.7446 14.0278 33.5446 14.3056C33.4557 14.4291 33.5779 14.5988 34.0113 14.9538C34.7113 15.5093 34.7557 15.5093 35.0891 15.1235L35.3335 14.8303L33.9891 11.6513L32.6446 8.47228L32.8779 7.08339C33.1335 5.57104 33.1557 5.24697 33.0335 5.2624C32.9779 5.2624 32.5335 5.55561 32.0335 5.91055ZM33.0891 11.3426L33.7779 13.2717L33.1891 12.9476C32.8779 12.7624 32.5557 12.5926 32.4891 12.5464C32.3002 12.4383 32.1224 9.41364 32.3113 9.41364C32.3557 9.41364 32.7002 10.2778 33.0891 11.3426Z" fill="white"/>
<path d="M3.47789 9.50313C3.35567 9.93523 3.989 14.8272 4.24456 15.4291C4.51123 16.0772 6.22234 19.4414 6.27789 19.4414C6.30012 19.4414 5.85567 18.4229 5.27789 17.1883L4.24456 14.9352L4.16678 13.176C4.12234 12.2038 4.11123 11.0618 4.13345 10.6451C4.17789 10.0741 4.14456 9.82721 4.01123 9.67289C3.67789 9.27165 3.55567 9.22536 3.47789 9.50313Z" fill="white"/>
<path d="M5.72228 11.6641C5.96672 12.0036 6.61117 12.837 7.16672 13.5314L8.15561 14.7968L8.23339 15.9234C8.35561 17.5129 8.3445 21.4789 8.23339 21.7413C8.16672 21.8802 8.03339 21.9265 7.87783 21.8647C7.62228 21.7722 7.62228 21.7876 7.82228 22.0036C8.07783 22.2505 8.42228 22.158 8.6445 21.7722C8.87783 21.3863 8.72228 15.3678 8.46672 14.7814C8.31117 14.411 7.38894 13.3154 5.77783 11.6024L5.27783 11.0623L5.72228 11.6641Z" fill="white"/>
<path d="M14.7002 13.4244L13.7891 14.0108L14.1668 15.3842C14.4891 16.5262 14.5446 16.8657 14.4891 17.4676C14.4446 17.8997 14.3557 18.2083 14.278 18.2083C14.2002 18.2083 13.9891 17.4213 13.778 16.341C13.4557 14.6744 13.3891 14.4892 13.2557 14.7361C13.0668 15.1219 13.0668 15.2145 13.4335 17.3132C13.7002 18.8565 13.7224 19.1805 13.6002 19.3966C13.3557 19.8595 13.4224 20.0139 14.0446 20.4923C14.5335 20.8626 14.678 20.9089 14.8002 20.7546C14.9113 20.6003 15.078 20.6466 15.6446 21.0015C16.2557 21.3873 16.3335 21.4799 16.2335 21.7268C16.1446 21.9737 16.2113 22.0818 16.7335 22.4984C17.1891 22.8688 17.4002 22.946 17.5446 22.8379C18.0557 22.4676 18.0335 22.3904 16.8224 19.5046C15.1557 15.5694 15.3002 16.125 15.5557 14.6281C15.7891 13.2546 15.8224 12.8071 15.7002 12.8225C15.6446 12.8225 15.2002 13.1003 14.7002 13.4244ZM15.778 18.8256C16.1446 19.8441 16.4002 20.6774 16.3335 20.6774C16.278 20.6774 15.9557 20.5231 15.6224 20.3379L15.0335 19.9984L14.9557 18.9799C14.8668 17.5602 14.878 16.9737 14.9891 16.9737C15.0557 16.9737 15.4002 17.8071 15.778 18.8256Z" fill="white"/>
</svg>
