<svg width="40" height="35" viewBox="0 0 40 35" fill="none" xmlns="http://www.w3.org/2000/svg">
<path d="M25.9901 0.544323C24.8078 0.680511 23.5664 1.06183 22.128 1.74277C20.3152 2.58713 18.7979 3.06378 16.3546 3.54043C13.1428 4.15327 11.9999 4.65717 11.33 5.74666C10.7585 6.69997 11.0935 7.70775 12.2561 8.53849L12.8472 8.96067L12.1773 9.43732C11.1132 10.1591 10.7782 10.7856 10.8768 11.8342C10.9753 13.1552 11.6058 13.7408 14.0886 14.7895C15.192 15.2661 16.059 15.7155 16.0393 15.8245C16.0196 15.9334 15.3103 16.7778 14.4236 17.7175C13.5566 18.6435 12.6502 19.7194 12.4137 20.1144C11.9408 20.9042 11.862 20.9315 10.0295 21.1766C5.83243 21.7486 3.90139 23.5735 3.62553 27.2369C3.40878 29.7428 3.98021 31.3634 5.24129 31.9354C5.51716 32.0579 8.23637 32.521 11.2906 32.9704C14.3447 33.4198 18.0492 33.9646 19.4876 34.1961C22.9359 34.7408 24.1378 34.7136 25.1231 34.0463C25.4974 33.8011 25.8915 33.4062 26.0098 33.1747C26.1674 32.8206 26.7388 32.5346 29.5763 31.3906C31.4482 30.6416 33.2413 29.8109 33.596 29.5385C34.3644 28.9529 34.3447 29.0482 34.9753 23.8595C35.5073 19.556 35.9605 17.9899 37.0245 16.7506C37.3004 16.4101 37.6354 15.947 37.7733 15.7292C38.0689 15.198 38.0886 12.8828 37.8127 10.1319C37.6354 8.22526 37.5369 7.87117 37.0442 7.14938C36.7487 6.69997 36.3152 5.88285 36.0984 5.3381C35.5664 4.04432 34.9556 3.34977 33.3792 2.24666C31.2511 0.748604 28.9063 0.203857 25.9901 0.544323ZM29.5369 2.056C30.6206 2.38285 31.9408 3.11825 32.2955 3.56767C32.6896 4.0988 32.1773 4.62993 30.5221 5.39257C29.458 5.86923 29.0245 6.16884 28.7487 6.59102C28.2758 7.31281 28.2758 7.44899 28.8669 8.2525C29.4383 9.01514 30.0689 9.38285 31.0344 9.4918C31.6846 9.55989 31.7241 9.54627 31.7241 9.2058C31.7241 8.91981 31.8226 8.85172 32.1773 8.85172C32.8472 8.85172 32.8866 8.93343 32.5713 9.69608C32.3152 10.2681 32.3152 10.6221 32.4925 11.8342C32.7881 13.7681 32.7684 14.9393 32.4728 15.021C32.3349 15.0482 31.6058 15.021 30.8374 14.9665C30.0886 14.8984 27.4876 14.7486 25.0837 14.6533C22.6797 14.5443 20.5319 14.3809 20.2955 14.2992C19.8226 14.1221 19.7832 13.5502 20.1181 11.0716C20.3743 9.23304 20.2561 8.75639 19.3891 8.44316C18.7979 8.22526 18.7979 8.04822 19.3694 7.39452L19.8029 6.87701L19.9014 7.62604C19.9999 8.30697 20.0393 8.34783 20.2364 8.0346C20.3546 7.84394 20.5319 6.90425 20.6502 5.93732C20.7881 4.86144 20.9851 4.07156 21.1625 3.8809C21.4186 3.60853 24.6896 2.23304 25.8324 1.91981C26.6797 1.68829 28.6108 1.75639 29.5369 2.056ZM20.5516 4.35755C20.059 4.94316 19.6255 5.10658 17.4186 5.51514C16.3546 5.71942 15.2709 5.96456 15.0344 6.07351C14.4433 6.33226 13.9309 7.04043 14.0492 7.43538C14.1674 7.85755 13.7339 7.87117 13.3201 7.46261C12.7881 6.9451 12.926 6.31864 13.6551 5.78752C14.2068 5.39257 14.6994 5.24277 17.3398 4.69802C19.0147 4.34394 20.4334 4.04432 20.4728 4.00347C20.5122 3.97623 20.6305 3.94899 20.729 3.94899C20.8275 3.94899 20.7487 4.13966 20.5516 4.35755ZM31.8423 5.40619C30.7782 6.11436 30.7388 6.15522 30.7388 6.87701V7.5988L29.9309 7.69413C28.7684 7.83032 28.5122 7.50347 29.0442 6.61825C29.2413 6.29141 29.8127 5.9237 31.0147 5.36534C31.9408 4.91592 32.7093 4.4665 32.729 4.35755C32.7487 4.22137 32.7881 4.2486 32.8472 4.41203C32.926 4.60269 32.6305 4.88868 31.8423 5.40619ZM34.2856 5.74666C34.6403 6.52292 35.0738 7.32643 35.2314 7.55794C35.527 7.93927 35.8817 9.26028 35.7043 9.26028C35.6649 9.26028 35.4088 9.13771 35.1329 8.9879C34.7979 8.81086 34.3053 8.71553 33.7142 8.70191C32.8275 8.70191 31.7043 8.48401 32.3152 8.44316C32.4728 8.42954 32.3349 8.33421 31.9802 8.22526C31.1526 7.98012 30.8768 7.58518 30.995 6.83615C31.0738 6.33226 31.2511 6.11436 32.197 5.46067C32.8078 5.03849 33.3004 4.61631 33.3004 4.52098C33.3004 4.42565 33.3792 4.35755 33.4777 4.35755C33.5763 4.35755 33.9309 4.98401 34.2856 5.74666ZM19.7635 8.87896C20.1575 9.24666 20.1575 9.2739 19.8423 11.1941C19.4482 13.5365 19.4285 14.1221 19.8029 14.5716C20.197 15.0346 20.1773 15.1163 19.6649 15.1163C19.0541 15.1163 18.3447 14.2447 18.463 13.6863C18.5812 13.1552 18.1477 12.4743 17.1822 11.6299C16.7684 11.2622 16.3743 10.8809 16.2758 10.7992C16.0196 10.486 16.591 10.0502 17.793 9.65522C18.463 9.45094 18.8768 9.2739 18.6994 9.26028C18.1477 9.26028 15.6846 10.1727 15.0738 10.6221C14.6206 10.949 14.5024 11.1669 14.5024 11.5482C14.5418 12.4198 15.0541 12.8965 16.8275 13.6863C18.9162 14.6124 19.1526 14.9256 18.5418 16.0424C18.3053 16.4646 17.9704 16.9276 17.793 17.0502C17.5172 17.2544 17.5172 17.2953 17.7733 17.2953C18.0886 17.2953 18.7979 16.4918 18.995 15.9198C19.1132 15.5385 20.0984 15.1435 20.4728 15.3206C20.591 15.3614 20.7093 15.8109 20.7093 16.3148L20.7487 17.2272L20.926 16.4782C21.3004 14.9256 21.1034 15.0755 22.8176 15.1844C23.6452 15.2253 25.9507 15.3478 27.9211 15.4432C29.8915 15.5521 31.5861 15.6611 31.6846 15.7155C31.8029 15.7564 31.8029 16.0424 31.7043 16.4373C31.5073 17.1455 31.6846 18.412 31.9211 18.0988C31.9999 17.9899 32.2561 17.2408 32.5122 16.4237C32.8866 15.1299 32.926 14.5988 32.8669 12.2428C32.8078 9.61436 32.8275 9.54627 33.2413 9.2739C34.128 8.70191 35.4679 9.11047 35.862 10.0502C36.0984 10.663 36.1181 15.3478 35.8817 15.4432C35.7832 15.484 35.6649 15.3206 35.6058 15.0755C35.5664 14.8439 35.4088 14.2992 35.2906 13.877C35.1723 13.4548 34.995 12.447 34.8965 11.6299L34.7388 10.1455L34.6994 11.4801C34.6797 12.3653 34.8176 13.2097 35.0738 14.0268L35.4679 15.2525L34.995 16.0424C34.5418 16.7778 33.7536 18.9976 33.5763 20.019C33.5369 20.2778 33.2807 22.2661 33.0048 24.4315C32.6699 27.1007 32.4334 28.449 32.2364 28.6533C32.0196 28.8984 25.2807 31.7311 24.9457 31.7311C24.5516 31.7311 25.8718 28.8984 26.9556 27.4412C27.6846 26.4743 28.2167 25.984 29.5172 25.0988L31.1526 23.9821L32.1378 21.9665C33.1428 19.8692 33.2413 19.6105 32.9063 19.6105C32.8078 19.6105 32.7093 19.733 32.7093 19.8692C32.7093 20.1688 31.3103 22.9334 30.8176 23.5735C30.6403 23.805 29.8127 24.4996 28.9851 25.1124C26.7782 26.733 25.2413 28.912 24.6502 31.2544C24.197 32.984 24.197 32.984 23.3694 33.1883C22.6403 33.3517 22.3053 33.3245 17.9507 32.6299C15.3891 32.2214 12.0984 31.7311 10.6403 31.5268C7.66494 31.1046 7.31026 30.9821 7.68464 30.4918C7.82257 30.3148 7.96051 30.1513 7.98021 30.1241C7.99991 30.0969 9.04425 30.2739 10.2659 30.4918C11.5073 30.7097 14.2462 31.1455 16.3546 31.4587C20.7881 32.1124 21.1625 32.1941 21.4383 32.5891C21.5566 32.7525 21.6551 32.807 21.6551 32.7116C21.6748 32.6163 21.7733 32.5755 21.9112 32.6299C22.0689 32.698 22.0886 32.6299 22.0098 32.3984C21.9309 32.2214 21.8718 31.7992 21.8521 31.4587C21.8324 30.9276 21.8127 30.9004 21.6945 31.2544C21.596 31.6085 21.4777 31.663 20.8866 31.7039C20.2167 31.7447 8.43341 29.9743 7.54671 29.6883C7.27085 29.6202 7.09351 29.4432 7.09351 29.2661C7.09351 28.8031 8.23637 27.8362 9.261 27.4548C10.5418 26.9646 11.7241 26.9918 15.9211 27.5774C17.8127 27.8498 19.4482 28.0404 19.5664 28.0132C19.6649 27.9996 18.5418 27.7953 17.0245 27.5774C15.527 27.3731 14.1674 27.1552 14.0098 27.1007C13.8521 27.0463 14.8768 26.7467 16.4728 26.3653L19.2117 25.7116L21.0442 25.8751C22.66 26.0249 22.8571 26.0793 22.8571 26.3245C22.8571 26.5288 23.0147 26.4334 23.4679 25.9704C24.1773 25.2214 24.7487 24.9218 26.463 24.3906C27.2708 24.1455 27.9211 23.8323 28.2167 23.5327C28.7684 23.0424 30.66 19.9237 30.5024 19.8011C30.4433 19.7739 30.0295 20.305 29.596 20.9996C29.1428 21.6941 28.6502 22.3206 28.4925 22.4023C28.3152 22.484 27.192 22.4568 25.3792 22.3478C21.9507 22.1435 20.7487 21.9665 20.5122 21.6805C20.4137 21.5443 20.4531 20.9315 20.6108 20.1552C20.926 18.5891 20.9457 17.9762 20.6896 17.9762C20.591 17.9762 20.4728 18.1397 20.4728 18.3439L20.4334 18.7253L20.3546 18.3439C20.2167 17.7175 19.8029 18.0035 19.7043 18.807C19.6255 19.3381 19.527 19.5424 19.3103 19.5424C19.0935 19.5424 18.995 19.3381 18.9556 18.6844C18.8768 17.4587 18.325 17.5949 18.325 18.8478C18.325 19.5696 18.0689 19.7467 17.1822 19.6513C16.6699 19.5832 16.5319 19.6105 16.6305 19.733C16.729 19.8284 16.4531 20.5093 16.059 21.2447C15.4088 22.4432 15.2906 22.5793 14.9753 22.4704C14.2462 22.198 13.3398 22.3342 11.6452 22.9607C8.47282 24.1319 8.25607 24.3362 7.78317 26.3517C7.60583 27.0871 7.29056 27.986 7.09351 28.3809C6.67972 29.1163 6.6009 29.6338 6.85706 29.7428C6.95558 29.7836 7.0344 30.056 7.0541 30.3692C7.09351 30.8323 7.0344 30.914 6.69942 30.914C5.93095 30.914 5.65509 30.342 5.55656 28.4626C5.35952 24.7039 6.66001 23.056 10.1871 22.5385C12.926 22.1435 13.1822 22.0074 14.2659 20.4684C14.6403 19.9373 15.7043 18.7253 16.6305 17.772C17.5566 16.8186 18.325 15.9062 18.325 15.7292C18.325 15.2116 17.4186 14.6124 15.4482 13.8089C13.4975 13.019 12.9063 12.6241 12.7093 11.984C12.5122 11.3712 13.2216 10.4179 14.128 10.0502C15.3497 9.54627 18.7979 8.47039 19.0935 8.48401C19.2511 8.49763 19.5467 8.67467 19.7635 8.87896ZM20.2364 20.7272C20.197 20.9042 20.1575 20.7953 20.1575 20.4957C20.1378 20.1961 20.1773 20.0599 20.2364 20.1825C20.2758 20.3186 20.2758 20.5638 20.2364 20.7272ZM14.9556 22.7019C15.1723 22.8381 15.5073 23.1922 15.6846 23.4918L15.9999 24.0365L15.3103 23.4918L14.6206 22.947L12.394 23.4646C11.192 23.7506 9.93095 24.1046 9.61568 24.2544C9.30041 24.4179 9.00484 24.5132 8.94573 24.4723C8.8078 24.377 9.93095 23.805 11.4285 23.2194C13.4383 22.4295 14.2462 22.307 14.9556 22.7019ZM24.9063 22.879C26.5221 23.0288 27.8817 23.1649 27.9211 23.1922C28.1773 23.3692 27.5467 23.7506 26.1674 24.2408C25.3004 24.5541 24.2364 25.0307 23.8226 25.2895L23.0738 25.7525L21.8324 25.6027C21.1428 25.521 20.4334 25.4256 20.2561 25.3848C19.7832 25.2895 19.8029 24.7447 20.2955 23.9957C20.5713 23.5599 20.6305 23.3284 20.4925 23.1513C19.9999 22.5113 20.4728 22.4704 24.9063 22.879Z" fill="white"/>
<path d="M24.8865 6.80968C24.3348 6.9731 24.0195 7.17738 23.9604 7.38166C23.5663 8.6482 23.4678 9.16571 23.5663 9.27466C23.783 9.51979 25.7535 9.31551 26.2855 8.98866C26.5023 8.83886 26.2264 7.01396 25.9505 6.7552C25.7338 6.56454 25.6156 6.57816 24.8865 6.80968ZM26.0885 7.85831C26.2461 8.798 26.1673 8.8661 24.788 9.04314C23.9407 9.15209 23.9604 9.16571 24.256 8.14431C24.4136 7.61318 24.6303 7.32718 25.0835 7.05481C25.8126 6.6054 25.9111 6.67349 26.0885 7.85831Z" fill="white"/>
<path d="M34.2856 9.79104C34.2856 9.85913 34.3842 9.96808 34.4827 10.0089C34.6009 10.0498 34.6797 10.0362 34.6797 9.95447C34.6797 9.88637 34.6009 9.77742 34.4827 9.73657C34.3842 9.69571 34.2856 9.70933 34.2856 9.79104Z" fill="white"/>
<path d="M22.5813 27.047C22.5024 27.2377 22.4827 27.4283 22.5221 27.4692C22.5813 27.4964 22.6798 27.3602 22.7389 27.156C22.8177 26.9653 22.8374 26.7746 22.798 26.7338C22.7389 26.7065 22.6404 26.8427 22.5813 27.047Z" fill="white"/>
<path d="M22.2461 27.9164C22.1673 28.216 22.0885 28.2569 21.3792 28.2296C20.591 28.216 20.591 28.216 21.1821 28.3522C22.0097 28.5565 22.0688 28.6791 21.9703 29.6868C21.9112 30.3269 21.9703 30.2043 22.1673 29.2102C22.325 28.4612 22.4235 27.7802 22.3841 27.7121C22.3447 27.6304 22.2856 27.7257 22.2461 27.9164Z" fill="white"/>
<path d="M20.0588 28.1511C20.1967 28.192 20.3741 28.1783 20.4332 28.1375C20.512 28.0966 20.3938 28.0558 20.177 28.0694C19.9603 28.0694 19.9012 28.1103 20.0588 28.1511Z" fill="white"/>
</svg>
