<svg width="65" height="65" viewBox="0 0 65 65" fill="none" xmlns="http://www.w3.org/2000/svg">
<path d="M63.9558 0.0481723C60.0285 0.0550334 56.1002 0.118336 52.1729 0.0330415C50.6785 3.58696e-05 49.6567 0.719478 48.8023 2.24225C46.876 5.67577 44.8889 9.05285 42.9189 12.4451C41.5067 14.8771 40.0806 17.2982 38.6343 19.7716C38.7815 19.9284 38.9372 20.0948 39.1356 20.3067C39.3926 19.8844 39.6188 19.5075 39.8502 19.136C40.5627 17.9929 41.2614 16.836 41.9963 15.719C42.4304 15.0601 43.0896 15.0202 43.5632 15.5443C44.0357 16.0684 44.0559 16.6627 43.6229 17.4248C43.5184 17.6091 43.4064 17.788 43.2976 17.9695C39.4588 24.3647 35.6168 30.7585 31.7887 37.1647C31.5445 37.5719 31.296 37.7259 30.8992 37.7246C25.5138 37.7122 20.1285 37.7218 14.7431 37.7259C14.4583 37.7273 14.1725 37.7149 13.8898 37.7465C13.2605 37.8167 12.7763 38.411 12.7027 39.1744C12.6259 39.9736 12.948 40.6835 13.5549 40.9435C13.8002 41.048 14.0776 41.0618 14.34 41.0618C19.192 41.0686 24.0441 41.0673 28.8972 41.0686C29.0924 41.0686 29.2886 41.0576 29.4827 41.081C30.208 41.1704 30.7947 41.8472 30.8021 42.5873C30.8107 43.469 30.2379 44.2559 29.4923 44.3632C29.2812 44.3935 29.0657 44.3811 28.8534 44.3811C24.0003 44.3838 19.1483 44.3838 14.2962 44.3907C14.0136 44.3907 13.7235 44.4004 13.4504 44.4788C12.8318 44.6562 12.4169 45.3399 12.4201 46.1034C12.4222 46.8654 12.9011 47.5931 13.5229 47.7307C13.7651 47.7857 14.0189 47.772 14.2664 47.772C16.3975 47.7747 18.5275 47.7733 20.8079 47.7733C20.3589 48.5217 19.9973 49.1077 19.6507 49.7075C18.536 51.6361 17.4332 53.577 16.3143 55.5015C15.4141 57.0477 14.2642 57.8469 12.7027 57.7781C10.5364 57.6832 8.36583 57.7575 6.19741 57.7685C5.73664 57.7712 5.26946 57.7685 4.81508 57.8552C4.14311 57.9831 3.71967 58.697 3.741 59.5526C3.76128 60.378 4.20177 60.9888 4.87696 61.1002C5.08814 61.1345 5.3036 61.1222 5.51586 61.1222C8.87571 61.1318 12.2345 61.1318 15.5943 61.1552C16.0327 61.1579 16.486 61.2116 16.9073 61.3588C17.4662 61.5527 17.767 62.1346 17.7105 62.7124C17.6454 63.3823 17.2337 63.8693 16.6417 63.9202C16.1991 63.9587 15.7543 63.9436 15.3095 63.9532C14.9821 63.96 14.613 63.9697 14.5746 64.4897C14.5671 64.5915 15.0418 64.8638 15.2956 64.8693C17.9963 64.9271 20.6991 64.8982 23.3987 64.9973C24.9187 65.0537 25.9981 64.2531 26.8855 62.7275C32.9108 52.372 38.9532 42.0343 44.9924 31.6939C49.3858 24.1721 53.807 16.6778 58.1673 9.12438C59.6157 6.61527 61.125 4.19835 62.9233 2.09643C63.5238 1.39486 64.151 0.731828 64.8123 0C64.4795 0.0192472 64.2182 0.0481723 63.9558 0.0481723ZM25.2749 49.4998C25.2568 49.5369 25.2397 49.5727 25.2216 49.6084C25.1864 49.6814 25.148 49.7501 25.1085 49.8175C23.8755 51.8878 22.6308 53.9457 21.3956 56.0146C21.0383 56.613 20.7226 57.254 20.3407 57.8249C20.1413 58.1234 19.8639 58.3752 19.5823 58.5347C19.1248 58.7933 18.6885 58.6186 18.3984 58.1042C18.1168 57.6021 18.0859 57.0394 18.4005 56.5154C19.3797 54.8853 20.3599 53.2593 21.3412 51.632C21.9961 50.548 22.6393 49.4516 23.3144 48.391C23.8126 47.6083 24.6061 47.4818 25.1618 48.0664C25.1639 48.0678 25.165 48.0705 25.1671 48.0719C25.1863 48.0925 25.2045 48.1145 25.2215 48.1366C25.2354 48.1544 25.2482 48.1723 25.2599 48.1902C25.4754 48.519 25.502 49.0073 25.3271 49.3884C25.3101 49.4269 25.293 49.4626 25.2749 49.4998Z" fill="white"/>
<path d="M27.0255 24.3045C26.8391 23.9651 26.7268 23.7416 26.6 23.5328C23.7193 18.7873 20.8067 14.0732 17.9703 9.28419C16.8691 7.4249 15.5377 6.55292 13.7249 6.64208C11.8082 6.73633 9.88638 6.66667 7.96684 6.65559C7.22552 6.65129 6.7353 6.18693 6.61114 5.4199C6.47011 4.54868 6.78679 3.78634 7.44795 3.53782C7.76555 3.41844 8.11255 3.3898 8.44648 3.38807C10.917 3.37521 13.3877 3.39413 15.8581 3.36272C16.2311 3.35799 16.6346 3.2243 16.9663 3.00511C17.3445 2.75529 17.575 2.28523 17.4317 1.68124C17.2932 1.09736 16.9431 0.856314 16.4956 0.84837C15.6781 0.833889 14.8601 0.855702 14.043 0.829341C13.7524 0.819952 13.2696 1.01015 13.2701 0.435295C13.2707 -0.10453 13.7375 0.0149981 14.0452 0.0155036C17.2267 0.0206675 20.4087 0.0776866 23.5894 0.0182477C24.9881 -0.00789679 26.0819 0.606968 26.9319 1.99457C28.2646 4.17013 29.595 6.34817 30.9099 8.54156C33.29 12.5117 35.6582 16.4938 38.0306 20.4717C38.149 20.6703 38.2603 20.8759 38.4177 21.1539C37.303 22.927 36.2176 24.7344 35.06 26.4612C34.4543 27.3648 33.5897 27.7368 32.6634 27.7373C26.5847 27.7403 20.5061 27.7323 14.4275 27.7195C14.183 27.719 13.9269 27.6805 13.6966 27.5812C13.0387 27.2978 12.7143 26.6046 12.8156 25.7786C12.9047 25.0519 13.4299 24.4197 14.0456 24.4061C15.5382 24.3731 17.0313 24.3818 18.5242 24.376C21.1547 24.3656 23.7851 24.3574 26.4156 24.3462C26.5728 24.3455 26.73 24.3253 27.0255 24.3045Z" fill="white"/>
<path d="M65.0001 64.9499C64.6592 64.9499 64.4749 64.9498 64.2906 64.9499C60.0969 64.9524 55.9031 64.9447 51.7095 64.9652C50.7509 64.9699 49.9551 64.5308 49.3643 63.6028C48.4634 62.1874 47.6175 60.7136 46.7517 59.2611C44.3485 55.2288 41.953 51.1888 39.5368 47.1696C39.2579 46.7057 39.2636 46.4151 39.5394 45.9458C41.674 42.314 43.783 38.6572 45.9016 35.0097C45.9308 34.9593 45.982 34.9302 46.048 34.8672C47.1131 36.6543 48.1776 38.4263 49.2304 40.2097C52.8353 46.3158 56.4285 52.4332 60.0426 58.5302C61.3204 60.686 62.7939 62.6076 64.4313 64.3164C64.5797 64.4714 64.7208 64.6382 65.0001 64.9499Z" fill="white"/>
<path d="M15.1704 34.3263C10.6045 34.3263 6.03861 34.3282 1.47272 34.3247C0.556925 34.324 0.00871433 33.715 9.03559e-05 32.7156C-0.00774962 31.8065 0.495381 31.0876 1.20571 31.0333C1.61297 31.0021 2.02266 31.0217 2.43127 31.0217C11.19 31.0213 19.9487 31.0202 28.7074 31.0257C28.97 31.0259 29.2447 31.0442 29.4927 31.1423C30.0755 31.3731 30.4176 31.9828 30.3968 32.6588C30.374 33.401 30.0133 34.0251 29.4445 34.2209C29.1922 34.3078 28.9188 34.3185 28.6549 34.3189C24.1601 34.3244 19.6652 34.3228 15.1704 34.3228V34.3263Z" fill="white"/>
<path d="M14.273 20.8516C12.6559 20.8516 11.0388 20.8563 9.42168 20.8474C9.12144 20.8457 8.8131 20.8345 8.52294 20.7476C7.94723 20.5752 7.60339 20.0424 7.56974 19.3638C7.53138 18.5904 7.82526 17.985 8.40817 17.7197C8.62063 17.6229 8.85919 17.5837 9.08596 17.5828C12.5157 17.5695 15.9455 17.57 19.3753 17.5586C19.9431 17.5567 20.4288 17.7462 20.7576 18.3856C21.2769 19.3958 20.8529 20.6687 19.9212 20.8405C19.5369 20.9113 19.1415 20.8946 18.7512 20.896C17.2585 20.9015 15.7657 20.8982 14.273 20.8982C14.273 20.8827 14.273 20.8672 14.273 20.8516Z" fill="white"/>
<path d="M7.92538 26.6178C8.23582 26.6178 8.48748 26.2933 8.48748 25.8929C8.48748 25.4925 8.23582 25.168 7.92538 25.168C7.61494 25.168 7.36328 25.4925 7.36328 25.8929C7.36328 26.2933 7.61494 26.6178 7.92538 26.6178Z" fill="white"/>
<path d="M7.52792 46.6452C7.83836 46.6452 8.09002 46.3206 8.09002 45.9202C8.09002 45.5199 7.83836 45.1953 7.52792 45.1953C7.21748 45.1953 6.96582 45.5199 6.96582 45.9202C6.96582 46.3206 7.21748 46.6452 7.52792 46.6452Z" fill="white"/>
<path d="M11.031 54.3206C11.8081 54.3206 12.438 53.5082 12.438 52.506C12.438 51.5038 11.8081 50.6914 11.031 50.6914C10.254 50.6914 9.62402 51.5038 9.62402 52.506C9.62402 53.5082 10.254 54.3206 11.031 54.3206Z" fill="white"/>
<path d="M8.4109 14.0237C9.18796 14.0237 9.8179 13.2113 9.8179 12.2091C9.8179 11.2069 9.18796 10.3945 8.4109 10.3945C7.63384 10.3945 7.00391 11.2069 7.00391 12.2091C7.00391 13.2113 7.63384 14.0237 8.4109 14.0237Z" fill="white"/>
<path d="M8.48707 41.1995C9.26414 41.1995 9.89407 40.3871 9.89407 39.3849C9.89407 38.3827 9.26414 37.5703 8.48707 37.5703C7.71001 37.5703 7.08008 38.3827 7.08008 39.3849C7.08008 40.3871 7.71001 41.1995 8.48707 41.1995Z" fill="white"/>
</svg>
