<svg width="60" height="55" viewBox="0 0 60 55" fill="none" xmlns="http://www.w3.org/2000/svg">
<path d="M36.0031 0C36.1427 0 36.2824 0 36.4299 0C36.7724 3.87872 35.1573 6.77688 33.1945 8.87564C31.2685 10.9599 28.6312 12.9814 24.3656 12.6747C24.0811 8.85149 25.6988 6.16827 27.659 4.07434C29.4769 2.12291 32.8098 0.386422 36.0031 0Z" fill="white"/>
<path d="M48.9158 40.3705C48.9158 40.4091 48.9158 40.4429 48.9158 40.4791C47.717 43.8072 46.0071 46.6595 43.9204 49.3065C42.0155 51.7096 39.6812 54.9434 35.5131 54.9434C31.9115 54.9434 29.5192 52.8205 25.828 52.7626C21.9233 52.7046 19.7761 54.5377 16.206 54.999C15.7977 54.999 15.3893 54.999 14.9888 54.999C12.3673 54.6512 10.2516 52.7481 8.71031 51.0333C4.16546 45.9663 0.653405 39.4213 0 31.0456C0 30.2245 0 29.4057 0 28.5846C0.276643 22.5902 3.45409 17.7165 7.67751 15.3544C9.90647 14.0986 12.9706 13.0287 16.3826 13.5069C17.8448 13.7146 19.3387 14.1734 20.6481 14.6275C21.8891 15.0646 23.4409 15.8399 24.9111 15.7988C25.907 15.7723 26.8976 15.2965 27.9015 14.9608C30.8418 13.9875 33.7242 12.8717 37.5234 13.3958C42.0893 14.0285 45.33 15.8882 47.3324 18.7574C43.4699 21.0107 40.4163 24.4064 40.938 30.2051C41.4017 35.4726 44.7425 38.5543 48.9158 40.3705Z" fill="white"/>
</svg>
