<svg width="60" height="55" viewBox="0 0 60 55" fill="none" xmlns="http://www.w3.org/2000/svg">
<path fill-rule="evenodd" clip-rule="evenodd" d="M57.3261 28.0977C57.3261 26.2288 57.1506 24.4319 56.8245 22.707H30.8301V32.9012H45.6839C45.0441 36.1955 43.0996 38.9868 40.1766 40.8554V47.468H49.0965C54.3153 42.8798 57.3261 36.1238 57.3261 28.0977Z" fill="#4285F4"/>
<path fill-rule="evenodd" clip-rule="evenodd" d="M30.8304 53.8547C38.2824 53.8547 44.53 51.4947 49.0965 47.4699L40.1767 40.8573C37.7054 42.4385 34.5439 43.3728 30.8304 43.3728C23.6418 43.3728 17.5573 38.737 15.3869 32.5078H6.16602V39.3361C10.7075 47.9491 20.0413 53.8547 30.8304 53.8547Z" fill="#34A853"/>
<path fill-rule="evenodd" clip-rule="evenodd" d="M15.387 32.5069C14.835 30.9256 14.5214 29.2364 14.5214 27.4996C14.5214 25.7625 14.835 24.0735 15.387 22.4922V15.6641H6.1661C4.29684 19.2219 3.23047 23.2469 3.23047 27.4996C3.23047 31.752 4.29684 35.7771 6.1661 39.3349L15.387 32.5069Z" fill="#FBBC05"/>
<path fill-rule="evenodd" clip-rule="evenodd" d="M30.8304 11.6263C34.8825 11.6263 38.5207 12.956 41.381 15.5675L49.2974 8.0086C44.5176 3.756 38.2699 1.14453 30.8304 1.14453C20.0413 1.14453 10.7075 7.05027 6.16602 15.6633L15.3869 22.4914C17.5573 16.2622 23.6418 11.6263 30.8304 11.6263Z" fill="#EA4335"/>
</svg>
