<svg width="30" height="30" viewBox="0 0 30 30" fill="none" xmlns="http://www.w3.org/2000/svg">
<g clip-path="url(#clip0_1047_2661)">
<path d="M3.9389 29.1798C3.387 29.1798 2.8351 28.9697 2.41525 28.5499L1.41616 27.5508C0.576124 26.7107 0.576124 25.3435 1.41616 24.5035L9.73156 16.1877C9.1553 13.6656 10.4985 11.0052 12.9208 10.0022C14.4869 9.35349 16.2964 9.49114 17.7608 10.3707C17.9347 10.4751 18.0509 10.6536 18.0756 10.8548C18.1003 11.056 18.0308 11.2575 17.8876 11.4007L13.7836 15.5051C13.6933 15.5953 13.6433 15.7158 13.6433 15.8436C13.6433 15.9714 13.693 16.0919 13.7836 16.1821C13.9647 16.3636 14.2801 16.3636 14.4609 16.1821L18.5659 12.0774C18.7095 11.9339 18.9094 11.8647 19.1116 11.8894C19.3125 11.9141 19.4909 12.0297 19.5957 12.2036C19.7514 12.4621 19.8683 12.6896 19.9638 12.9194C21.1009 15.6658 19.7922 18.8254 17.0466 19.9628C16.0119 20.3912 14.8666 20.4844 13.779 20.2338L5.46289 28.5499C5.04271 28.97 4.4908 29.1798 3.9389 29.1798ZM14.9763 10.9081C14.4524 10.9081 13.9271 11.0112 13.425 11.219C11.4996 12.0162 10.4764 14.1991 11.0952 16.1887C11.168 16.4222 11.1051 16.6767 10.9319 16.8499L2.34741 25.4347C2.02075 25.7614 2.02075 26.2925 2.34741 26.6195L3.3465 27.6186C3.67283 27.9449 4.20432 27.9456 4.53131 27.6186L13.1164 19.0335C13.2896 18.8606 13.5448 18.7974 13.7776 18.8705C14.6845 19.152 15.6658 19.1086 16.5421 18.746C18.5363 17.9198 19.5272 15.6822 18.8389 13.6673L15.3925 17.1137C15.0533 17.4529 14.6022 17.6402 14.1224 17.6402C13.6426 17.6402 13.1915 17.4532 12.8523 17.1137C12.5131 16.7749 12.3264 16.3237 12.3264 15.8439C12.3264 15.3641 12.5131 14.913 12.8526 14.5738L16.2951 11.1314C15.867 10.9829 15.4218 10.9081 14.9763 10.9081Z" fill="white"/>
<path d="M16.5828 29.8008H13.384C11.9842 29.7998 10.8455 28.6611 10.8458 27.2622C10.8458 26.9112 10.7042 26.6511 10.4128 26.466C10.2409 26.357 10.1292 26.1749 10.1098 25.9724C10.0904 25.7699 10.1655 25.5696 10.3136 25.4304L13.6023 22.3313C13.7443 22.1973 13.9379 22.1321 14.1325 22.1568C15.3558 22.304 16.6062 22.1318 17.7485 21.6583C19.5287 20.921 20.916 19.5317 21.6556 17.7462C22.3949 15.9608 22.3962 13.9972 21.6589 12.2173C20.9216 10.4371 19.5323 9.04948 17.7469 8.30988C15.9611 7.56995 13.9978 7.56929 12.218 8.30659C9.24211 9.53914 7.42834 12.6349 7.8067 15.8343C7.83041 16.0345 7.76093 16.2347 7.61834 16.3773L4.44359 19.5537C4.30825 19.6884 4.12154 19.7576 3.93088 19.745C3.74022 19.7312 3.56503 19.6357 3.45076 19.4826C3.268 19.2386 3.02334 19.1197 2.70293 19.1197C2.02458 19.1197 1.38706 18.8556 0.907933 18.3762C0.428806 17.8967 0.165039 17.2595 0.165039 16.5812V13.383C0.165039 12.705 0.428806 12.0675 0.908262 11.588C1.38805 11.1086 2.02557 10.8445 2.70326 10.8445C3.25516 10.8445 3.48929 10.478 3.57952 10.2593C3.6704 10.0397 3.76458 9.61455 3.37404 9.22467C2.89425 8.74455 2.63048 8.10736 2.63081 7.42934C2.63081 6.75132 2.89491 6.11347 3.37437 5.63434L5.63565 3.37306C6.11543 2.8936 6.75229 2.62951 7.42933 2.62951C7.42999 2.62951 7.43032 2.62951 7.43097 2.62951C8.10867 2.62951 8.74619 2.8936 9.22564 3.37339C9.6152 3.76295 10.0407 3.66877 10.2596 3.57854C10.4783 3.48799 10.8451 3.25385 10.8451 2.70195C10.8468 1.30277 11.9851 0.164062 13.3837 0.164062H16.5825C17.2608 0.164062 17.898 0.428159 18.3771 0.907615C18.8566 1.38674 19.1207 2.02393 19.1207 2.70195C19.1207 3.27493 19.53 3.5061 19.7062 3.57887C19.8833 3.65296 20.3355 3.77842 20.7405 3.37372C21.7294 2.38484 23.3396 2.38385 24.3295 3.37273L26.5918 5.635C27.0716 6.11446 27.3357 6.75198 27.3357 7.43C27.3357 8.10835 27.0712 8.74587 26.5918 9.22532C26.1871 9.63003 26.3132 10.0828 26.3863 10.2587C26.4597 10.4358 26.6906 10.8451 27.2629 10.8451C28.6627 10.8455 29.8011 11.9838 29.8014 13.383V16.5818C29.8004 17.9797 28.6624 19.1181 27.2645 19.1204C26.7116 19.1204 26.4768 19.4872 26.3863 19.7059C26.2957 19.9245 26.2016 20.35 26.5918 20.7402C27.581 21.7297 27.5813 23.34 26.5928 24.3292L24.3302 26.5915C23.3403 27.5797 21.73 27.5803 20.7418 26.5924C20.3513 26.2019 19.9255 26.2957 19.7062 26.386C19.4878 26.4762 19.1207 26.711 19.1207 27.2626C19.121 27.9399 18.8569 28.5774 18.3771 29.0572C18.139 29.2956 17.8624 29.4807 17.5542 29.6085C17.246 29.7362 16.9197 29.8008 16.5828 29.8008ZM11.7267 25.9088C12.0118 26.2869 12.1633 26.7492 12.163 27.2622C12.163 27.9353 12.7109 28.4833 13.3847 28.4836H16.5828C16.7455 28.4836 16.9029 28.4526 17.0501 28.3917C17.1976 28.3305 17.331 28.2412 17.4459 28.126C17.6767 27.8951 17.8038 27.5886 17.8035 27.2629C17.8035 26.1456 18.5263 25.4485 19.2027 25.1689C19.8797 24.8893 20.8837 24.8715 21.6727 25.6609C22.1482 26.1354 22.9231 26.1357 23.3992 25.6599L25.6612 23.3979C26.1364 22.9221 26.136 22.1473 25.6605 21.6714C24.8712 20.8821 24.8893 19.8781 25.1695 19.2017C25.4498 18.5253 26.1469 17.8032 27.2629 17.8032C27.2632 17.8032 27.2635 17.8032 27.2639 17.8032C27.9356 17.8022 28.4839 17.2539 28.4842 16.5815V13.383C28.4839 12.7103 27.9366 12.1623 27.2635 12.162C26.1456 12.162 25.4491 11.4392 25.1695 10.7625C24.889 10.0878 24.8702 9.08373 25.6605 8.29341C25.8914 8.06258 26.0185 7.756 26.0185 7.42967C26.0185 7.10366 25.8914 6.79709 25.6605 6.56625L23.3986 4.30398C22.9224 3.82848 22.1479 3.82881 21.6717 4.30464C20.8814 5.09528 19.8774 5.07651 19.2017 4.79529C18.5266 4.51638 17.8035 3.81926 17.8035 2.70162C17.8035 2.37562 17.6764 2.06904 17.4459 1.83854C17.2154 1.60836 16.9088 1.48125 16.5825 1.48125H13.3837C12.7109 1.48125 12.1633 2.02953 12.1626 2.70294C12.1626 3.81893 11.4402 4.51572 10.7638 4.79595C10.0874 5.07618 9.08339 5.0943 8.29406 4.3053C8.06322 4.07413 7.75665 3.94735 7.43064 3.94735C7.43032 3.94735 7.43032 3.94735 7.42999 3.94735C7.10398 3.94735 6.79774 4.07446 6.5669 4.30497L4.30562 6.56625C4.07478 6.79709 3.948 7.10366 3.948 7.43C3.948 7.75633 4.07478 8.06291 4.30562 8.29374C5.09527 9.08307 5.07716 10.0871 4.7966 10.7635C4.51768 11.4392 3.82122 12.162 2.70392 12.1623C2.70359 12.1623 2.70359 12.1623 2.70326 12.1623C2.37726 12.1623 2.07068 12.2894 1.83951 12.5203C1.60934 12.7504 1.48223 13.057 1.48223 13.383V16.5812C1.48223 16.9075 1.60934 17.2144 1.83984 17.4449C2.07035 17.6754 2.37693 17.8025 2.70359 17.8025C3.17053 17.8025 3.60026 17.9313 3.9615 18.1733L6.46712 15.6664C6.17438 11.9997 8.29604 8.50548 11.7141 7.08983C13.819 6.21786 16.1405 6.21884 18.2513 7.09313C20.3621 7.96741 22.004 9.6083 22.876 11.7135C23.748 13.8187 23.747 16.1402 22.8727 18.2504C21.9987 20.3608 20.3579 22.003 18.253 22.8753C16.9984 23.395 15.6328 23.608 14.2869 23.4964L11.7267 25.9088Z" fill="white"/>
</g>
<defs>
<clipPath id="clip0_1047_2661">
<rect width="30" height="30" fill="white"/>
</clipPath>
</defs>
</svg>
