<svg width="30" height="30" viewBox="0 0 30 30" fill="none" xmlns="http://www.w3.org/2000/svg">
<path d="M12.8846 9.02666C13.6872 7.0258 14.0885 6.02537 14.7405 5.88672C14.9119 5.85026 15.0891 5.85026 15.2605 5.88672C15.9125 6.02537 16.3138 7.0258 17.1164 9.02666C17.5728 10.1645 17.801 10.7334 18.228 11.1204C18.3478 11.2289 18.4778 11.3256 18.6162 11.409C19.1098 11.7065 19.7259 11.7617 20.9581 11.872C23.0441 12.0589 24.0871 12.1523 24.4056 12.7469C24.4715 12.8701 24.5164 13.0035 24.5382 13.1414C24.6438 13.8077 23.8771 14.5053 22.3436 15.9005L21.9178 16.2879C21.2008 16.9401 20.8424 17.2663 20.635 17.6733C20.5107 17.9174 20.4273 18.1804 20.3882 18.4516C20.323 18.9037 20.428 19.3768 20.638 20.323L20.713 20.6611C21.0895 22.358 21.2777 23.2065 21.0427 23.6235C20.8316 23.9981 20.4428 24.2379 20.0133 24.2585C19.5352 24.2813 18.8614 23.7323 17.514 22.6343C16.6262 21.9109 16.1823 21.5492 15.6896 21.4079C15.2393 21.2788 14.7617 21.2788 14.3114 21.4079C13.8187 21.5492 13.3748 21.9109 12.487 22.6343C11.1395 23.7323 10.4658 24.2813 9.98765 24.2585C9.55816 24.2379 9.16935 23.9981 8.95827 23.6235C8.72327 23.2065 8.91152 22.358 9.28802 20.6611L9.36303 20.323C9.57297 19.3768 9.67794 18.9037 9.6128 18.4516C9.57372 18.1804 9.49033 17.9174 9.36595 17.6733C9.15861 17.2663 8.80014 16.9401 8.08321 16.2879L7.65737 15.9005C6.12389 14.5053 5.35714 13.8077 5.46273 13.1414C5.4846 13.0035 5.52945 12.8701 5.59542 12.7469C5.91392 12.1523 6.95689 12.0589 9.04284 11.872C10.2751 11.7617 10.8912 11.7065 11.3847 11.409C11.5232 11.3256 11.6532 11.2289 11.773 11.1204C12.2 10.7334 12.4282 10.1645 12.8846 9.02666Z" fill="white" stroke="white" stroke-width="2.5"/>
</svg>
