<svg width="45" height="30" viewBox="0 0 45 30" fill="none" xmlns="http://www.w3.org/2000/svg">
<path d="M37.9512 1.26215C37.5667 1.40378 36.7407 1.71279 36.1141 1.9703C34.8895 2.48532 34.7043 2.51107 30.8309 2.70421C27.4559 2.85871 25.6189 3.37373 23.2977 4.79004L22.4717 5.30507L21.4179 4.90592C18.1426 3.657 14.6822 3.91451 11.6917 5.62695C8.10306 7.67416 6.16636 12.1549 5.88155 19.0046L5.7961 21.2192L4.71382 21.5797C3.24705 22.0819 2.99072 22.4424 2.99072 23.8716C3.00496 24.554 3.06193 24.9918 3.20433 25.1463C3.4749 25.4682 12.1331 28.7128 12.717 28.7128C12.9733 28.7128 14.2265 28.2879 15.5936 27.7343C19.111 26.3179 18.6553 26.3823 19.6664 27.2064C23.4116 30.2836 28.7945 29.9488 32.7676 26.3823C33.3657 25.8415 33.9069 25.4939 34.3483 25.3523C36.5271 24.6312 38.3357 22.7385 39.2755 20.1892C40.0445 18.1033 40.1584 16.2493 39.66 14.6398C39.4179 13.9059 38.6632 12.5926 38.3072 12.2965C38.1648 12.1806 37.2534 11.8072 36.2993 11.4596L34.5334 10.8287H35.3879C35.986 10.8158 36.4274 10.893 36.8119 11.0733C37.1252 11.2149 37.6379 11.3308 37.9654 11.3308C38.7202 11.3308 41.554 10.4424 42.3088 9.96601C43.4622 9.24498 44.1458 7.98318 44.1458 6.57974C44.1315 3.11622 40.842 0.283604 37.9512 1.26215ZM40.4433 2.57545C41.7676 3.19348 42.736 4.66129 42.8357 6.21923C42.9496 8.0218 42.2233 8.98747 40.2154 9.657C39.6031 9.87588 39.0619 10.0433 39.0334 10.0433C38.9907 10.0433 39.1616 9.85013 39.4037 9.61837C40.0872 8.97459 40.3436 8.39519 40.3578 7.53253C40.3721 5.82009 39.3752 4.30077 37.9796 3.92738C36.7834 3.60549 36.4274 3.72137 37.5809 4.05614C38.1505 4.22352 38.7771 4.48103 38.948 4.63554C39.7027 5.27931 40.1869 7.05614 39.8879 8.04755C39.5319 9.28361 38.2787 10.3909 37.6236 10.0561C37.3958 9.92738 37.3958 9.92738 37.6379 9.91451C37.9796 9.91451 37.9369 9.72137 37.5239 9.47674C37.3246 9.34798 37.1679 9.14198 37.1679 8.97459C37.1679 8.82009 37.3246 8.47245 37.5239 8.21494C37.9369 7.66129 37.9654 7.40378 37.6379 6.66987C37.41 6.10335 36.2565 4.4424 36.0287 4.31365C35.9575 4.27502 36.0714 4.57116 36.2708 4.9703C36.755 5.93597 36.8689 7.18489 36.5414 8.12481L36.2993 8.82009H34.2059C31.6853 8.82009 30.361 9.05185 28.6664 9.79863C27.4559 10.3394 26.2027 11.3566 25.7186 12.1935C25.5334 12.5282 25.6901 12.4252 26.4733 11.7428C28.3531 10.0948 29.3072 9.77288 32.3262 9.79863C33.2233 9.8115 33.8072 9.85013 33.6078 9.87588C33.4084 9.90163 32.611 10.069 31.8277 10.2364C31.0445 10.4038 30.0477 10.6098 29.6205 10.6999C29.1933 10.7772 28.524 10.9961 28.1252 11.1763C27.1426 11.6141 25.6331 13.0304 25.0777 13.9961C24.5793 14.8973 23.9243 16.5969 23.9385 16.9574C23.9385 17.0862 24.0952 16.8158 24.266 16.3523C25.4053 13.4424 27.1711 11.5755 29.3641 11.0089C30.1474 10.8029 30.2043 10.8158 31.5714 11.1377C32.3404 11.3179 33.7645 11.73 34.7471 12.0647L36.5271 12.657L37.0683 13.4038C37.9512 14.6012 38.1933 15.3351 38.2502 16.8673C38.2787 18.1935 38.2787 18.1935 38.179 17.1892C37.88 14.3051 36.5698 12.6312 34.6046 12.6184C33.9211 12.6184 32.6822 13.069 32.3404 13.4424C32.141 13.6613 32.1695 13.6613 32.7676 13.584C33.5793 13.481 34.5477 13.9059 34.9464 14.5368C35.8721 15.9918 35.7724 18.3351 34.7043 19.9317C33.4084 21.8888 31.6141 22.6484 30.2755 21.8244C29.6632 21.451 29.6347 21.5282 30.1616 22.2879C30.6458 22.9703 31.486 23.6527 31.9844 23.7686C32.5255 23.8973 33.7929 23.7428 34.3341 23.4853C35.6727 22.8673 37.3246 20.7686 37.8942 18.9918C38.0366 18.5669 38.1505 18.3094 38.1505 18.4252C38.1933 19.275 36.9971 21.4896 35.9433 22.5325C34.1062 24.3222 32.0841 24.5282 30.5888 23.0733C29.649 22.172 29.4069 21.4639 29.4211 19.8287C29.4496 18.1549 29.4781 17.8973 29.8626 16.6742C29.9338 16.4295 29.9195 16.4295 29.592 16.7128C28.8515 17.3308 28.6806 20.6656 29.3214 22.172C29.5065 22.6098 29.9053 23.1506 30.3183 23.5497C30.9021 24.1034 31.1442 24.2321 31.9132 24.4124C32.4116 24.5282 32.8388 24.6441 32.8673 24.657C32.967 24.7471 31.8135 25.79 30.9876 26.3437C29.179 27.5926 26.8721 28.3008 25.1347 28.1591C23.4258 28.0175 21.6031 27.2579 20.3072 26.1506C19.1395 25.172 18.0714 23.2922 17.6442 21.5025C17.3452 20.2407 17.3879 16.7128 17.7154 15.3222C18.9828 10.0175 22.5145 5.87159 26.9575 4.49391C28.2961 4.08189 29.7344 3.91451 32.967 3.79863C35.0176 3.72137 35.3024 3.68275 35.9575 3.37373C38.5065 2.20206 39.3183 2.04755 40.4433 2.57545ZM20.1221 5.72996C20.592 5.83296 21.2755 6.05185 21.66 6.19348L22.3578 6.46386L21.8309 7.00463C21.4037 7.42953 21.0477 7.60979 20.0224 7.94455C18.5556 8.42094 18.2423 8.66558 16.7471 10.4295C14.9527 12.5669 14.0983 13.7514 13.8847 14.3823C13.5002 15.5669 13.1157 17.9102 12.304 23.8458C12.2186 24.4381 12.2186 24.4381 11.6347 24.4896C10.7945 24.5669 10.1822 24.4252 8.573 23.7686L7.19167 23.2021V20.3952C7.20591 12.1806 9.27079 7.89305 14.0983 6.05185C15.7929 5.40807 18.2565 5.27931 20.1221 5.72996ZM19.0683 10.6227C17.5588 13.3909 16.861 16.3136 17.0034 19.3136C17.0888 21.245 17.3736 22.4038 18.0714 23.7686C18.3135 24.245 18.4986 24.657 18.4702 24.6827C18.3277 24.7986 17.3024 23.5755 16.9322 22.8544C16.149 21.2836 16.0208 20.627 16.035 18.0261C16.0493 15.8244 16.0777 15.554 16.4195 14.5111C16.8325 13.3136 17.5588 11.8973 18.2708 10.9445C18.6838 10.4038 19.7803 9.14198 19.8515 9.14198C19.8657 9.14198 19.524 9.8115 19.0683 10.6227ZM6.40844 22.79C6.40844 23.2793 6.45117 23.3179 7.10623 23.627C10.0825 24.9918 10.8372 25.0304 14.5255 24.1034L17.0176 23.4724L17.3309 23.9488C17.5018 24.2064 17.9148 24.5926 18.2423 24.7986L18.8404 25.172L17.929 25.5454C15.2945 26.627 13.13 27.4639 12.8167 27.5025C12.5888 27.5411 11.0651 27.039 8.40211 26.0347L4.34357 24.5025L4.30085 23.8201C4.27237 23.4467 4.32933 23.0733 4.40053 23.0089C4.54294 22.8802 6.05243 22.3008 6.30876 22.2879C6.36572 22.275 6.40844 22.5068 6.40844 22.79Z" fill="white"/>
<path d="M31.3435 14.4997C31.1014 14.68 30.7596 15.0147 30.5887 15.2336C30.3324 15.5684 30.4036 15.5298 31.0159 15.0276C31.4147 14.6929 31.8419 14.4225 31.9558 14.4225C32.2976 14.4225 33.0381 15.0662 33.2517 15.5426C33.3799 15.8002 33.4653 16.4053 33.4653 16.9203C33.4653 19.1864 32.497 20.4225 30.5175 20.7315L29.834 20.8345L30.4748 20.8474C32.383 20.8731 33.7501 19.1993 33.7501 16.8173C33.7501 15.7358 33.4368 15.0276 32.7675 14.5126C32.1979 14.0748 31.8989 14.0748 31.3435 14.4997Z" fill="white"/>
<path d="M30.717 15.7358C30.3895 16.1092 30.3752 16.1735 30.5604 16.3667C30.7455 16.5469 30.7455 16.5984 30.5461 16.7401C30.304 16.9203 30.2471 17.9632 30.4749 18.092C30.6885 18.2079 31.073 17.8989 30.9733 17.68C30.8594 17.4096 31.1585 16.9976 31.4718 16.9976C31.8847 16.9976 31.9559 16.7658 31.6996 16.1607C31.3294 15.3109 31.1442 15.2336 30.717 15.7358Z" fill="white"/>
<path d="M23.7963 17.4583C23.7963 17.5999 23.839 17.6386 23.8817 17.5356C23.9244 17.4454 23.9102 17.3295 23.8675 17.2909C23.8247 17.2394 23.782 17.3167 23.7963 17.4583Z" fill="white"/>
<path d="M30.7598 18.7488C30.7598 18.8518 30.7028 18.9033 30.6174 18.8647C30.532 18.826 30.5177 18.8775 30.5604 18.9805C30.6886 19.3024 30.9022 19.2252 30.9022 18.8647C30.9022 18.6844 30.8737 18.5428 30.831 18.5428C30.7883 18.5428 30.7598 18.6329 30.7598 18.7488Z" fill="white"/>
<path d="M23.5824 20.0877C23.9812 21.4912 25.1204 22.6886 26.5302 23.1521C26.9859 23.3066 27.4986 23.4354 27.6695 23.4354C27.8546 23.4354 28.5666 23.5899 29.2502 23.7701C31.2153 24.2852 30.8308 24.0534 28.6093 23.3839C27.5128 23.062 26.3736 22.6757 26.0745 22.547C25.3625 22.2122 24.3657 21.2594 23.8815 20.4482C23.6679 20.0749 23.5255 19.9075 23.5824 20.0877Z" fill="white"/>
<path d="M23.6396 21.3088C23.6396 21.3732 23.7821 21.8109 23.9529 22.2745C24.551 23.8067 26.0036 24.7594 27.271 24.4376C27.6555 24.3474 28.0542 24.0255 28.0542 23.8067C28.0542 23.768 27.7267 23.6779 27.3137 23.6393C25.8469 23.459 24.5083 22.6479 23.8817 21.5663C23.7536 21.3474 23.6539 21.2316 23.6396 21.3088Z" fill="white"/>
</svg>
