<svg width="21" height="18" viewBox="0 0 21 18" fill="none" xmlns="http://www.w3.org/2000/svg">
<path d="M13.761 9.4854C14.7497 8.80261 15.4713 7.86629 15.8255 6.80672C16.1797 5.74715 16.1489 4.61701 15.7373 3.57354C15.3258 2.53006 14.5539 1.62514 13.5292 0.984658C12.5044 0.34418 11.2777 0 10.0198 0C8.7618 0 7.53512 0.34418 6.51037 0.984658C5.48562 1.62514 4.71377 2.53006 4.3022 3.57354C3.89063 4.61701 3.8598 5.74715 4.21401 6.80672C4.56822 7.86629 5.28985 8.80261 6.2785 9.4854C4.58442 10.0812 3.10628 11.0693 2.00165 12.3445C0.897026 13.6197 0.207327 15.1342 0.00608267 16.7264C-0.00848447 16.8426 0.00317491 16.9602 0.0403948 17.0725C0.0776148 17.1848 0.139666 17.2896 0.223007 17.3808C0.391321 17.5651 0.636132 17.6831 0.903583 17.7089C1.17103 17.7348 1.43922 17.6663 1.64914 17.5185C1.85906 17.3708 1.99352 17.1559 2.02294 16.9211C2.24437 15.1907 3.18433 13.5926 4.66322 12.4321C6.14211 11.2715 8.05626 10.63 10.0399 10.63C12.0236 10.63 13.9378 11.2715 15.4166 12.4321C16.8955 13.5926 17.8355 15.1907 18.0569 16.9211C18.0844 17.1386 18.2026 17.3395 18.3888 17.485C18.575 17.6305 18.8161 17.7103 19.0654 17.7089H19.1763C19.4406 17.6822 19.6822 17.5649 19.8485 17.3825C20.0147 17.2001 20.0921 16.9675 20.0637 16.7352C19.8615 15.1385 19.1681 13.6202 18.0578 12.343C16.9475 11.0659 15.4622 10.078 13.761 9.4854ZM10.0198 8.8569C9.22197 8.8569 8.4421 8.64924 7.77876 8.26017C7.11542 7.8711 6.59841 7.3181 6.2931 6.6711C5.9878 6.0241 5.90792 5.31216 6.06356 4.62531C6.2192 3.93846 6.60338 3.30755 7.1675 2.81235C7.73163 2.31716 8.45037 1.97993 9.23283 1.84331C10.0153 1.70669 10.8263 1.77681 11.5634 2.0448C12.3005 2.3128 12.9304 2.76663 13.3737 3.34892C13.8169 3.9312 14.0535 4.61578 14.0535 5.31609C14.0535 6.25517 13.6285 7.15579 12.872 7.81982C12.1156 8.48386 11.0896 8.8569 10.0198 8.8569Z" fill="white"/>
</svg>
