<svg width="100" height="33" viewBox="0 0 100 33" fill="none" xmlns="http://www.w3.org/2000/svg">
<path d="M99.5117 23.3785L98.3334 22.4359V13.6545C98.3334 12.9185 97.5867 12.3212 96.6668 12.3212H68.3334V1.68385C68.3334 0.95322 67.5852 0.355876 66.6717 0.350563C38.2217 0.179938 32.3301 3.1865 22.3967 12.4785C19.135 12.7092 16.1084 13.1999 13.4316 13.9026C9.025 15.0585 5 16.3212 2.44336 20.3199V20.3213C2.05176 20.992 1.78828 21.6881 1.70332 22.4081L0.490039 23.3787C0.175 23.6279 0 23.9679 0 24.3212V26.9879C0 27.3412 0.175 27.6812 0.488281 27.9306L1.6666 28.8732V30.9879C1.6666 31.7238 2.41328 32.3212 3.3332 32.3212H10C10.925 32.3212 11.665 31.7132 11.6666 30.9732C11.6666 30.9665 11.6684 30.9599 11.6684 30.9518C11.6934 25.8145 16.9051 21.6545 23.3334 21.6545C29.7768 21.6545 35 25.8331 35 30.9877C34.8801 31.7971 35.6783 32.321 36.6666 32.321H65C65.925 32.321 66.665 31.7131 66.6666 30.9731C66.6666 30.9663 66.6682 30.9598 66.6682 30.9517C66.6932 25.8143 71.9049 21.6543 78.3332 21.6543C84.7766 21.6543 89.9998 25.8329 89.9998 30.9876C89.8799 31.797 90.6781 32.3209 91.6664 32.3209H96.6664C97.108 32.3209 97.533 32.1809 97.8447 31.9303L99.5113 30.597C99.8246 30.3463 99.9996 30.0076 99.9996 29.6529V24.3196C100 23.9679 99.825 23.6279 99.5117 23.3785ZM48.3334 11.6546C48.3334 12.0226 47.9602 12.3213 47.5 12.3213H28.8982C28.16 12.3213 27.7932 11.6134 28.3016 11.1854C33.1299 7.13072 37.7533 4.80009 47.3699 3.73213C47.8717 3.67619 48.3332 3.99072 48.3332 4.39478L48.3334 11.6546ZM65 11.6546C65 12.0226 64.6268 12.3213 64.1666 12.3213H52.5C52.04 12.3213 51.6666 12.0227 51.6666 11.6546V3.97869C51.6666 3.62931 51.9934 3.33728 52.4283 3.31197C55.785 3.11338 59.6617 3.01994 64.1516 3.01197C64.6133 3.01056 64.9998 3.31056 64.9998 3.67994L65 11.6546Z" fill="white"/>
</svg>
