<svg width="45" height="30" viewBox="0 0 45 30" fill="none" xmlns="http://www.w3.org/2000/svg">
<path d="M12.6214 2.68925C12.2123 3.01325 12.182 3.12125 12.5153 3.12125C12.6972 3.12125 12.7275 3.22925 12.6972 3.62525C12.6669 4.02125 12.5759 4.16525 12.3184 4.26125C11.8941 4.40525 11.8638 4.63325 12.2729 4.71725C12.5153 4.76525 12.5759 4.88525 12.5759 5.26925C12.5759 5.68925 12.5153 5.78525 12.1972 5.88125C11.7426 6.01325 11.6972 6.31325 12.1214 6.39725C12.3487 6.44525 12.4244 6.55325 12.4244 6.86525C12.4244 7.33325 12.3184 7.47725 11.8487 7.66925C11.4699 7.83725 11.5305 8.04125 11.985 8.04125C12.1972 8.04125 12.2729 8.12525 12.2729 8.36525C12.2729 8.97725 12.1063 9.22925 11.6972 9.26525C11.1366 9.31325 11.1214 9.55325 11.6669 9.69725C12.0305 9.80525 12.1214 9.90125 12.1214 10.1653C12.1214 10.5853 11.985 10.7413 11.5456 10.8613C11.1214 10.9573 11.182 11.2093 11.6366 11.2573C11.8941 11.2933 11.9699 11.3773 11.9699 11.6533C11.9699 11.9413 12.0305 12.0013 12.3487 12.0013C12.5911 12.0013 12.7275 12.0733 12.7275 12.1813C12.7275 12.3133 12.5456 12.3613 11.9699 12.3613C11.4093 12.3613 11.2123 12.4093 11.2123 12.5293C11.2123 12.8533 11.6669 13.0813 12.3487 13.0813H13.0153L12.9396 13.7053C12.8941 14.0533 12.8032 14.7973 12.7123 15.3613C12.6366 15.9253 12.5759 16.4533 12.5759 16.5253C12.5759 16.6333 12.2729 16.6813 11.5305 16.6813C10.5002 16.6813 10.3032 16.7653 10.3032 17.1733C10.3032 17.2333 11.6517 17.2812 13.485 17.2812C15.2426 17.2812 16.6669 17.2333 16.6669 17.1853C16.6669 16.9333 16.076 16.6813 15.485 16.6813C14.7426 16.6813 14.7729 16.8253 15.0153 14.6053L15.1972 13.0813H16.0002C16.7426 13.0813 17.2729 12.8893 17.2729 12.6133C17.2729 12.5533 17.485 12.4813 17.7275 12.4333C18.4244 12.3253 18.3032 12.0253 17.5002 11.8693C16.8487 11.7373 16.8184 11.7133 16.8184 11.2813V10.8373L17.6669 10.7653C18.1366 10.7293 18.5608 10.6573 18.6063 10.6213C18.7578 10.5013 18.3335 10.3453 17.6214 10.2613C16.985 10.1893 16.9699 10.1773 16.9699 9.72125C16.9699 9.26525 16.985 9.24125 17.5608 9.16925C18.7275 9.02525 18.7578 8.71325 17.6063 8.46125C17.1063 8.34125 17.0456 8.29325 17.0911 7.98125C17.1517 7.58525 17.3335 7.44125 17.8184 7.44125C17.985 7.44125 18.2578 7.35725 18.4244 7.26125C18.6669 7.11725 18.682 7.06925 18.485 6.97325C18.3638 6.90125 18.0002 6.81725 17.682 6.78125C17.1214 6.69725 17.1063 6.68525 17.1517 6.26525C17.1972 5.85725 17.2426 5.82125 17.7729 5.74925C18.8487 5.61725 18.8941 5.26925 17.879 5.02925C17.3335 4.89725 17.2729 4.84925 17.2729 4.48925C17.2729 4.12925 17.3032 4.10525 18.0002 3.99725C18.9244 3.86525 18.9699 3.58925 18.076 3.43325C17.5305 3.34925 17.4244 3.27725 17.4244 3.04925C17.4244 2.83325 17.5002 2.76125 17.7729 2.76125C17.9699 2.76125 18.2426 2.68925 18.3941 2.60525C18.6366 2.46125 18.2275 2.43725 15.8184 2.42525C13.0305 2.41325 12.9396 2.42525 12.6214 2.68925ZM17.1214 2.82125C17.1214 3.07325 17.0456 3.12125 16.6669 3.12125C16.1517 3.12125 13.1366 2.86925 13.0456 2.80925C13.0305 2.79725 13.0456 2.72525 13.1063 2.65325C13.1669 2.56925 13.9396 2.52125 15.1669 2.52125H17.1214V2.82125ZM14.9244 3.48125C17.0911 3.67325 17.1214 3.68525 17.1214 4.11725C17.1214 4.81325 17.1063 4.81325 13.682 4.48925L13.0305 4.42925V3.88925C13.0305 3.27725 12.9093 3.30125 14.9244 3.48125ZM17.879 3.64925C17.879 3.67325 17.7729 3.72125 17.6517 3.76925C17.5305 3.80525 17.4244 3.78125 17.4244 3.72125C17.4244 3.64925 17.5305 3.60125 17.6517 3.60125C17.7729 3.60125 17.879 3.62525 17.879 3.64925ZM15.076 5.10125C17.0153 5.23325 16.9699 5.20925 16.9699 5.90525V6.50525L15.7275 6.42125C15.0305 6.37325 14.1972 6.30125 13.8638 6.25325L13.2578 6.18125L13.2123 5.53325L13.1669 4.89725L13.5911 4.96925C13.8184 5.00525 14.5002 5.06525 15.076 5.10125ZM17.9699 5.28125C18.1063 5.28125 18.1517 5.32925 18.1063 5.40125C17.9547 5.60525 17.2729 5.54525 17.2729 5.32925C17.2729 5.19725 17.3487 5.16125 17.5153 5.20925C17.6517 5.24525 17.8487 5.28125 17.9699 5.28125ZM15.3032 6.87725L16.7426 7.03325L16.7881 7.59725C16.8335 8.14925 16.8184 8.16125 16.4093 8.16125C16.182 8.14925 15.4093 8.08925 14.6972 8.00525L13.4093 7.84925L13.3638 7.28525C13.3032 6.63725 13.1669 6.66125 15.3032 6.87725ZM17.8032 7.08125C18.0608 7.16525 18.0305 7.18925 17.6214 7.18925C17.3487 7.20125 17.1214 7.14125 17.1214 7.08125C17.1214 6.93725 17.379 6.93725 17.8032 7.08125ZM15.985 8.62925L16.5911 8.70125L16.6366 9.33725C16.682 10.0573 16.7426 10.0333 15.1669 9.82925C13.3638 9.60125 13.485 9.67325 13.485 8.98925V8.37725L14.4396 8.46125C14.9547 8.50925 15.6517 8.58125 15.985 8.62925ZM17.7578 8.76125C18.1972 8.76125 18.0608 8.83325 17.4699 8.91725C17.076 8.97725 16.9699 8.95325 16.9699 8.80925C16.9699 8.67725 17.0608 8.64125 17.2123 8.68925C17.3487 8.72525 17.5911 8.76125 17.7578 8.76125ZM16.5608 10.5613C16.6366 10.6093 16.6366 10.8493 16.5911 11.0893C16.4699 11.5933 16.2729 11.6173 14.6972 11.3053L13.7123 11.1013L13.6669 10.6093L13.6214 10.1173L15.0305 10.2973C15.8032 10.3933 16.5002 10.5013 16.5608 10.5613ZM15.1517 12.1213C15.1517 12.1933 14.6669 12.2413 14.0153 12.2413C13.3638 12.2413 12.879 12.1933 12.879 12.1213C12.879 12.0493 13.3638 12.0013 14.0153 12.0013C14.6669 12.0013 15.1517 12.0493 15.1517 12.1213ZM17.2729 12.1213C17.5456 12.1933 17.3335 12.2173 16.5608 12.2293C15.9093 12.2413 15.4547 12.1933 15.4547 12.1213C15.4547 11.9773 16.7275 11.9773 17.2729 12.1213Z" fill="white"/>
<path d="M24.1214 8.65388C21.8336 9.55388 20.0002 12.7339 19.6214 16.4659L19.5154 17.4019L11.6972 17.4139C7.37902 17.4259 4.03053 17.4499 4.24265 17.4739C4.45478 17.4979 7.7275 17.6539 11.5154 17.8219C15.3033 17.9899 18.6366 18.1579 18.9093 18.1939L19.3942 18.2539V19.0219V19.7899L18.8336 19.8739C18.5154 19.9099 17.4548 20.0779 16.4548 20.2339C15.4699 20.3899 14.6214 20.5219 14.5911 20.5219C14.5457 20.5219 14.6972 20.3539 14.9245 20.1379C15.2578 19.8259 15.3184 19.6699 15.2427 19.3339C14.9851 18.0619 12.7427 18.0619 12.4851 19.3339C12.4093 19.6699 12.4699 19.8259 12.7881 20.1259C13.0154 20.3419 13.379 20.5339 13.6063 20.5699C14.182 20.6419 9.77296 20.5339 7.1972 20.3899C5.04568 20.2819 3.43962 20.2579 3.71235 20.3419C3.80326 20.3779 4.57599 20.4739 5.45478 20.5819C10.8033 21.2179 12.2124 21.3619 12.9396 21.3619C13.3942 21.3619 15.0305 21.1699 16.5911 20.9299C18.1517 20.7019 19.5154 20.5339 19.6214 20.5699C19.7275 20.5939 19.8942 20.9899 19.9851 21.4459C20.4699 23.6659 21.4548 25.4419 22.9396 26.7139C24.0608 27.6979 25.0608 28.2259 26.5608 28.6219C27.5154 28.8739 27.9851 28.9219 29.4245 28.9219C34.1366 28.9099 37.4851 27.4459 39.2881 24.6019C40.4699 22.7299 40.6669 21.9619 40.6669 19.1419C40.6669 16.9099 40.6366 16.6579 40.2427 15.4339C40.0154 14.7259 39.6517 13.8019 39.4245 13.3939C38.379 11.4499 36.2881 9.51788 35.4245 9.69788C35.1214 9.75788 35.1214 9.76988 35.3942 9.92588C35.5457 10.0099 35.7578 10.0579 35.8487 10.0339C36.2578 9.91388 37.5911 11.3539 38.5154 12.9139C40.5305 16.3219 40.6214 21.4219 38.7427 24.4819C38.0305 25.6219 36.182 27.0739 34.6972 27.6499C33.4396 28.1299 31.4699 28.5619 30.6214 28.5499C29.9851 28.5379 30.0154 28.5379 31.5002 28.2619C35.4093 27.5419 38.1214 25.4779 39.1063 22.4659C39.4851 21.2659 39.6517 18.4459 39.4093 17.0179C39.0305 14.7979 37.9093 12.2539 36.9548 11.4859C36.6517 11.2459 36.3033 11.0419 36.1972 11.0419C36.076 11.0539 36.3184 11.2939 36.7427 11.5819C37.1517 11.8819 37.4245 12.1219 37.3336 12.1219C37.2427 12.1219 37.0305 12.0139 36.8487 11.8819C36.2881 11.4619 36.273 11.6179 36.8336 12.0859C37.1214 12.3379 37.4699 12.6499 37.576 12.7819L37.8033 13.0219L37.4245 12.7819C37.2124 12.6499 36.8639 12.3739 36.6366 12.1819C36.4093 11.9779 36.2275 11.8819 36.2124 11.9539C36.2124 12.0259 36.3639 12.2179 36.5608 12.3739C36.7427 12.5419 37.0002 12.7819 37.1214 12.9259C37.2427 13.0699 37.576 13.4179 37.8487 13.7059L38.3639 14.2219L37.6669 13.6339C37.273 13.3099 36.9245 13.0699 36.8942 13.0939C36.8639 13.1299 37.1669 13.5379 37.5911 14.0059C38.1366 14.6299 38.2578 14.8459 38.0608 14.7979C37.8033 14.7499 37.773 14.8219 37.7881 15.3859C37.8033 15.8179 37.879 16.0819 38.0608 16.2259C38.2124 16.3459 38.3336 16.5139 38.3336 16.5859C38.3184 16.6699 38.2275 16.6099 38.0911 16.4419C37.879 16.1539 37.879 16.1539 37.9699 16.6219C38.0305 16.8859 38.1669 17.3059 38.273 17.5579C38.379 17.8099 38.4093 17.9779 38.3336 17.9419C38.2427 17.8939 38.182 18.0499 38.182 18.3139C38.182 18.6859 38.1517 18.7339 37.9548 18.6019C37.6972 18.4339 37.6214 17.2219 37.879 17.3419C37.9699 17.3779 38.0305 17.3659 38.0305 17.3059C38.0305 17.2339 37.9396 17.1619 37.8184 17.1259C37.576 17.0539 37.4093 15.9619 37.6366 15.9619C37.7275 15.9619 37.7124 15.9019 37.6214 15.8299C37.3033 15.5779 37.1669 15.8299 37.2881 16.4659C37.3487 16.8139 37.3942 17.3659 37.3942 17.7019C37.379 18.2299 37.3639 18.1939 37.2578 17.4259C37.182 16.9459 37.0608 16.3819 36.9699 16.1659C36.8184 15.7819 36.8184 15.7939 36.8942 16.2619C37.0305 17.1259 37.1669 20.1019 37.0608 20.0299C37.0154 19.9939 36.9548 19.6819 36.9548 19.3339C36.9245 18.6979 36.7275 18.4219 36.576 18.8059C36.3639 19.3219 35.8033 20.2699 35.3487 20.8459C35.076 21.1939 34.8487 21.5419 34.8487 21.6259C34.8487 21.7099 34.7881 21.8419 34.7275 21.9259C34.6669 22.0099 34.6214 21.8419 34.6214 21.5659C34.6366 21.1699 34.7427 20.9779 35.0911 20.7019C35.6517 20.2579 36.5305 18.6259 36.6366 17.8339C36.682 17.4139 36.6669 17.2699 36.5305 17.3299C36.4396 17.3779 36.3639 17.4979 36.3639 17.5939C36.3639 17.8459 35.6214 19.2019 35.2881 19.5859C34.9548 19.9459 34.8942 20.4739 35.1972 20.3299C35.3336 20.2579 35.3184 20.2939 35.182 20.4259C34.8639 20.7379 34.5457 20.5579 34.5457 20.0659C34.5457 19.7419 34.6669 19.5619 35.0608 19.2739C35.6972 18.8179 36.3639 17.3419 36.2427 16.6939C36.1669 16.2859 36.1669 16.2859 35.8033 17.0539C35.6063 17.4739 35.3942 17.9299 35.3639 18.0619C35.2881 18.3019 35.2881 18.3019 35.5154 18.0739C35.8639 17.7379 35.8184 18.0499 35.4548 18.7099C35.2427 19.0699 35.0911 19.2019 34.9245 19.1539C34.8033 19.1179 34.6972 19.1419 34.6972 19.1899C34.6972 19.2499 34.1366 19.3579 33.4396 19.4419L32.1821 19.5979L32.2427 20.8699C32.3487 23.1259 31.6214 25.3819 30.5002 26.1619C30.2275 26.3539 30.1669 26.3779 30.3184 26.2219C31.1669 25.4059 31.6366 24.0499 31.7578 22.0819C31.9699 19.1059 30.8487 14.7499 29.2275 12.2179C28.7124 11.4139 28.6669 11.2579 29.0911 11.6659C29.4548 12.0379 30.5002 13.7059 30.7427 14.3059C30.8487 14.5579 31.0002 14.7619 31.076 14.7619C31.1517 14.7619 31.2124 14.8459 31.2124 14.9659C31.2124 15.0739 31.2578 15.1339 31.3033 15.0859C31.3487 15.0499 31.3487 14.8459 31.2881 14.6299C31.1972 14.3419 31.1517 14.2939 31.0305 14.4139C30.9245 14.5339 30.9093 14.4859 30.9699 14.2579C31.076 13.8859 30.9396 13.5379 30.7427 13.6339C30.6517 13.6699 30.6366 13.5859 30.6821 13.4179C30.7881 13.0819 30.5154 12.4339 30.3184 12.5419C30.076 12.6499 29.9851 12.3979 30.1517 12.0739C30.3184 11.7139 30.2124 11.4019 29.8942 11.4019C29.773 11.4019 29.7275 11.3419 29.773 11.2819C29.8184 11.2099 29.7881 11.1619 29.7124 11.1619C29.6214 11.1619 29.5457 11.0179 29.5457 10.8499C29.5457 10.6819 29.4699 10.4419 29.379 10.3099C29.2427 10.1059 29.1821 10.0939 28.9851 10.2259C28.7578 10.3699 28.7578 10.3579 28.9093 10.1179C29.1669 9.74588 29.1366 9.62588 28.7578 9.46988C28.4851 9.34988 28.3942 9.37388 28.2275 9.55388C27.9851 9.81788 27.9699 9.67388 28.2124 9.36188C28.379 9.16988 28.3487 9.09788 28.1063 8.95388C27.8942 8.83388 27.7427 8.82188 27.6063 8.90588C27.4699 9.00188 27.4396 8.98988 27.5154 8.84588C27.5608 8.72588 27.4699 8.60588 27.2578 8.52188C26.9699 8.38988 26.879 8.40188 26.7124 8.58188C26.5305 8.78588 26.5002 8.78588 26.2427 8.60588C25.8487 8.32988 24.9093 8.35388 24.1214 8.65388ZM26.8487 9.20588C27.6214 9.54188 28.7275 10.4059 28.5608 10.5379C28.5002 10.5859 28.3487 10.5139 28.2124 10.3819C28.0608 10.2499 27.7578 10.0339 27.5002 9.91388C27.2578 9.78188 26.9851 9.61388 26.9245 9.51788C26.8336 9.40988 26.7275 9.39788 26.5154 9.48188C26.076 9.66188 25.9093 9.62588 25.9093 9.32588C25.8942 9.08588 25.879 9.07388 25.6972 9.27788C25.5305 9.44588 25.3639 9.46988 24.773 9.39788C24.2427 9.34988 24.076 9.36188 24.1517 9.45788C24.2124 9.54188 24.1063 9.62588 23.8639 9.67388C23.0154 9.84188 23.1821 9.38588 24.1214 9.01388C24.9396 8.67788 25.773 8.73788 26.8487 9.20588ZM26.3336 10.7899C27.1214 11.1139 27.7578 11.7259 28.4396 12.8659C28.7427 13.3699 29.0457 13.7659 29.1063 13.7299C29.1669 13.7059 29.1821 13.8019 29.1214 13.9459C29.076 14.1139 29.0911 14.1739 29.2124 14.1139C29.3184 14.0659 29.3942 14.0539 29.3942 14.0899C29.3942 14.1139 29.4396 14.2459 29.4851 14.3659C29.5608 14.5459 29.5457 14.5579 29.3942 14.4019C29.2427 14.2459 29.2275 14.2579 29.3033 14.4379C29.3487 14.5579 29.3942 14.7259 29.3942 14.7979C29.3942 14.8939 29.4548 14.8819 29.5305 14.7739C29.6214 14.6539 29.6972 14.7139 29.773 14.9899C29.8336 15.2059 29.8336 15.4099 29.7881 15.4459C29.7427 15.4939 29.6972 15.3979 29.6972 15.2419C29.6972 15.0859 29.6517 14.9899 29.6063 15.0379C29.5608 15.0739 29.5608 15.2779 29.6214 15.4939C29.6972 15.7819 29.7578 15.8299 29.8639 15.7099C29.9699 15.6019 29.9851 15.7099 29.9245 16.0219C29.8639 16.3579 29.879 16.4299 29.9851 16.2619C30.3033 15.6859 30.4396 18.8059 30.1669 20.7619C29.7124 24.1939 29.0154 25.7659 27.6063 26.5339C26.879 26.9299 25.0911 26.9419 24.1517 26.5459C23.4093 26.2459 22.3033 25.4179 21.773 24.7699C21.1214 24.0019 19.8336 20.5939 20.2427 20.7859C20.3184 20.8219 21.1669 21.2419 22.1366 21.7099L23.8942 22.5619H25.1972C26.6821 22.5619 26.5911 22.6459 26.7427 21.2899C26.8487 20.4499 26.8336 20.4259 26.3639 19.9939C25.8942 19.5739 25.8487 19.5619 24.8487 19.5619C23.8033 19.5619 23.7881 19.5619 21.9699 18.6499C20.9548 18.1459 20.0911 17.6539 20.0457 17.5459C19.9245 17.3059 20.5608 14.6779 21.0002 13.6099C22.076 10.9939 24.1366 9.90188 26.3336 10.7899ZM30.8639 14.0659C30.8184 14.1619 30.773 14.1259 30.773 13.9939C30.7578 13.8619 30.8033 13.7899 30.8487 13.8379C30.8942 13.8739 30.9093 13.9819 30.8639 14.0659ZM38.3184 15.5419C38.4851 15.7699 38.576 15.9619 38.5154 15.9619C38.4396 15.9619 38.273 15.7699 38.1366 15.5419C38.0002 15.3139 37.9093 15.1219 37.9396 15.1219C37.9699 15.1219 38.1366 15.3139 38.3184 15.5419ZM37.5305 19.2859C37.5002 19.4779 37.4699 19.3219 37.4699 18.9619C37.4699 18.6019 37.5002 18.4459 37.5305 18.6259C37.5608 18.8179 37.5608 19.1059 37.5305 19.2859ZM14.379 18.6619C14.8487 18.8539 15.0002 19.0579 15.0002 19.5139C15.0002 19.9099 14.3639 20.4019 13.8639 20.4019C13.3336 20.4019 12.7275 19.8979 12.7275 19.4659C12.7275 19.0939 12.9396 18.8179 13.4093 18.6259C13.8033 18.4459 13.879 18.4459 14.379 18.6619ZM21.8942 19.5499L23.7578 20.6179L24.8487 20.4379C26.273 20.2099 26.379 20.2459 26.273 20.9659C26.1063 22.1539 26.1972 22.0819 24.9245 22.0819C24.273 22.0819 23.7881 22.0339 23.7881 21.9619C23.7881 21.8899 23.7124 21.8419 23.6214 21.8419C23.5305 21.8419 22.6972 21.4219 21.773 20.9179C20.8336 20.4139 20.0608 19.9939 20.0457 19.9939C19.9548 19.9579 19.8336 18.4819 19.9245 18.4819C19.9851 18.4819 20.879 18.9619 21.8942 19.5499ZM38.1669 19.5019C38.1517 19.8499 38.1517 19.8499 38.0305 19.5619C37.9699 19.3939 37.9093 19.1539 37.8942 19.0219C37.879 18.8299 37.9093 18.8179 38.0305 18.9619C38.1063 19.0579 38.1669 19.2979 38.1669 19.5019ZM36.9396 20.8819V21.4219L36.8033 20.9419C36.7427 20.6779 36.682 20.2219 36.6972 19.9219V19.3819L36.8336 19.8619C36.8942 20.1259 36.9548 20.5819 36.9396 20.8819ZM38.0305 20.6059C38.0305 20.9299 37.9851 21.0139 37.8639 20.9179C37.7578 20.8339 37.7275 20.6419 37.7881 20.4739C37.9245 20.0299 38.0305 20.0899 38.0305 20.6059ZM37.8336 21.9859C37.8033 22.1419 37.773 22.0219 37.773 21.7219C37.773 21.4219 37.8033 21.3019 37.8336 21.4459C37.8639 21.6019 37.8639 21.8419 37.8336 21.9859ZM36.5911 22.8619C36.4699 23.1259 36.3942 23.2099 36.4245 23.0419C36.4699 22.8739 36.5608 22.4419 36.6214 22.0819C36.7427 21.4339 36.7427 21.4339 36.7881 21.9019C36.8033 22.1659 36.7275 22.5979 36.5911 22.8619ZM36.3184 23.6659C36.273 23.7619 36.2275 23.7259 36.2275 23.5939C36.2124 23.4619 36.2578 23.3899 36.3033 23.4379C36.3487 23.4739 36.3639 23.5819 36.3184 23.6659ZM29.6669 28.6459C29.5154 28.6699 29.2427 28.6699 29.0608 28.6459C28.8639 28.6219 28.9851 28.5979 29.3184 28.5979C29.6517 28.5859 29.8033 28.6099 29.6669 28.6459Z" fill="white"/>
<path d="M26.3183 9.25366C26.4243 9.33766 26.5455 9.37366 26.591 9.33766C26.6364 9.30166 26.5607 9.22966 26.4092 9.19366C26.197 9.12166 26.1819 9.13366 26.3183 9.25366Z" fill="white"/>
<path d="M22.4395 13.4791C23.2728 14.0671 23.485 14.7631 23.485 16.8871C23.485 18.0031 23.4243 18.7231 23.3183 18.8071C23.2122 18.8911 23.3031 18.9751 23.6516 19.0711C23.9092 19.1431 24.1668 19.2031 24.1971 19.2031C24.2274 19.2031 24.2425 18.2191 24.2122 17.0071C24.1668 14.7271 24.1819 14.7991 23.3637 13.5271C23.3334 13.4791 23.6213 13.4431 24.0001 13.4431C24.7577 13.4431 25.2274 13.6951 25.3789 14.1871C25.4243 14.3431 25.5153 15.1111 25.591 15.9031L25.7122 17.3431L25.7425 15.7831C25.7577 14.4151 25.7122 14.1751 25.4546 13.8271C25.0456 13.2991 24.3334 13.0831 23.0001 13.0831L21.894 13.0951L22.4395 13.4791Z" fill="white"/>
<path d="M13.3185 19.0468C13.1518 19.2268 13.1518 19.2388 13.3336 19.1068C13.4548 19.0348 13.6821 18.9628 13.8639 18.9628C14.0458 18.9628 14.273 19.0348 14.3942 19.1068C14.5761 19.2388 14.5761 19.2268 14.4094 19.0468C14.3033 18.9388 14.0458 18.8428 13.8639 18.8428C13.6821 18.8428 13.4245 18.9388 13.3185 19.0468Z" fill="white"/>
<path d="M14.4698 19.587C14.288 19.911 13.7274 20.007 13.3638 19.779C13.1365 19.635 13.1214 19.647 13.3183 19.827C13.4244 19.947 13.6668 20.043 13.8638 20.043C14.2274 20.043 14.7577 19.659 14.6668 19.443C14.6365 19.371 14.5456 19.443 14.4698 19.587Z" fill="white"/>
<path d="M29.4698 8.5933C29.6365 8.6893 29.7577 8.8333 29.7425 8.8933C29.7122 8.9533 29.7577 9.0013 29.8334 9.0013C29.9092 9.0013 30.0759 9.0373 30.2122 9.0733C30.3486 9.1093 30.4547 9.0853 30.4547 9.0133C30.4547 8.9413 30.3486 8.8813 30.2274 8.8813C30.1062 8.8813 29.9244 8.7733 29.8183 8.6413C29.7122 8.5093 29.5153 8.4013 29.394 8.4013C29.2274 8.4133 29.2425 8.4493 29.4698 8.5933Z" fill="white"/>
<path d="M31.2125 8.86999C31.2125 9.26599 31.4549 9.37399 31.561 9.02599C31.6216 8.86999 31.6367 8.86999 31.6519 9.07399C31.6519 9.21799 31.7731 9.39799 31.8943 9.48199C32.0155 9.56599 32.1216 9.78199 32.1216 9.96199C32.1216 10.31 31.8488 10.43 31.061 10.442C30.8488 10.442 30.6064 10.49 30.5004 10.538C30.3791 10.598 31.6367 10.634 32.3185 10.574C32.3791 10.562 32.4246 10.442 32.4246 10.298C32.4246 10.046 32.4397 10.046 32.6973 10.238C32.8337 10.358 33.0307 10.706 33.1216 11.018C33.2731 11.57 33.2731 11.57 33.2428 10.694C33.1973 9.70999 33.0913 9.57799 31.8943 8.89399L31.2125 8.50999V8.86999ZM32.5307 9.86599C32.4852 9.94999 32.4549 9.88999 32.4549 9.72199C32.4549 9.55399 32.4852 9.49399 32.5307 9.56599C32.561 9.64999 32.561 9.79399 32.5307 9.86599Z" fill="white"/>
<path d="M32.4243 8.97919C32.4243 9.02719 32.6667 9.25519 32.9546 9.48319C33.2425 9.69919 33.4243 9.93919 33.3789 9.99919C33.3334 10.0712 33.3637 10.0832 33.4546 10.0352C33.5455 9.98719 33.788 10.1552 34.0001 10.4072C34.2273 10.6592 34.394 10.7792 34.394 10.6712C34.394 10.5752 34.3031 10.4192 34.2122 10.3232C34.0455 10.1792 34.0607 10.1792 34.288 10.3112C34.8334 10.6472 34.7122 10.3112 34.1061 9.84319C33.5001 9.37519 33.1061 9.18319 33.4849 9.54319C33.8183 9.85519 33.394 9.73519 33.0152 9.39919C32.7122 9.13519 32.697 9.09919 32.9395 9.17119C33.1819 9.23119 33.197 9.21919 33.0304 9.06319C32.8334 8.87119 32.4243 8.81119 32.4243 8.97919ZM33.8486 9.91519C33.894 10.0112 33.8789 10.0592 33.788 10.0232C33.697 9.98719 33.6364 9.90319 33.6364 9.83119C33.6364 9.66319 33.7425 9.69919 33.8486 9.91519Z" fill="white"/>
<path d="M30.6214 9.37347C30.6214 9.46947 30.8789 9.69747 31.182 9.88947C31.485 10.0935 31.6517 10.1775 31.5608 10.0815C31.4547 9.98547 31.3638 9.78147 31.3638 9.62547C31.3638 9.46947 31.3032 9.37347 31.2123 9.42147C31.1214 9.46947 30.9547 9.43347 30.8335 9.36147C30.6517 9.24147 30.6062 9.24147 30.6214 9.37347Z" fill="white"/>
<path d="M34.0913 9.2895C34.0913 9.3255 34.2277 9.4095 34.3943 9.4815C34.561 9.5535 34.6974 9.5775 34.6974 9.5535C34.6974 9.5175 34.561 9.4335 34.3943 9.3615C34.2277 9.2895 34.0913 9.2655 34.0913 9.2895Z" fill="white"/>
<path d="M29.9698 9.68529C30.0759 9.72129 30.2123 9.70929 30.2577 9.67329C30.3183 9.63729 30.2274 9.60129 30.0608 9.61329C29.8941 9.61329 29.8486 9.64929 29.9698 9.68529Z" fill="white"/>
<path d="M34.8486 9.93694C34.8638 10.0449 36.5759 11.0409 36.6517 10.9689C36.7577 10.8849 36.3638 10.5969 35.6062 10.2249C35.1971 10.0209 34.8486 9.88894 34.8486 9.93694Z" fill="white"/>
<path d="M33.6062 10.3957C33.5456 10.4317 33.591 10.5877 33.6971 10.7317C33.9546 11.0557 33.8031 12.4477 33.485 12.6037C33.3637 12.6637 33.3031 12.7357 33.3486 12.7837C33.394 12.8197 33.5456 12.7477 33.6971 12.6157C34.0304 12.3277 34.1668 10.8157 33.894 10.5157C33.788 10.4077 33.6516 10.3477 33.6062 10.3957Z" fill="white"/>
<path d="M32.7275 11.4002C32.6063 11.4602 32.5608 11.5442 32.6215 11.5922C32.6821 11.6402 32.8184 11.6162 32.9093 11.5442C33.1366 11.3642 33.0154 11.2562 32.7275 11.4002Z" fill="white"/>
<path d="M35.4549 11.7608C35.8337 12.3608 36.3791 13.4408 36.2882 13.4408C36.2579 13.4408 36.0913 13.2008 35.9246 12.9008C35.5306 12.1928 35.4094 12.2048 35.7125 12.9248C35.9397 13.5008 36.2579 13.8008 36.6064 13.8008C36.7428 13.8008 36.6973 13.5848 36.4549 13.1048C35.9094 12.0248 35.4397 11.2808 35.2882 11.2808C35.2125 11.2808 35.2882 11.4968 35.4549 11.7608Z" fill="white"/>
<path d="M31.1367 11.7031L30.6821 11.8711L31.1367 11.7991C31.3943 11.7631 31.7579 11.6791 31.97 11.6311L32.3488 11.5471L31.97 11.5351C31.7579 11.5351 31.3943 11.6071 31.1367 11.7031Z" fill="white"/>
<path d="M34.5001 12.4115C34.4395 12.5315 34.394 12.7115 34.4092 12.8195C34.4092 12.9515 34.4698 12.9275 34.5607 12.7355C34.6365 12.5795 34.6819 12.3875 34.6516 12.3155C34.6213 12.2555 34.5607 12.2915 34.5001 12.4115Z" fill="white"/>
<path d="M31.8942 12.8415C31.6973 12.9134 31.8185 12.9254 32.273 12.8775C32.6518 12.8415 32.9851 12.7935 33.0154 12.7695C33.1518 12.6735 32.1821 12.7455 31.8942 12.8415Z" fill="white"/>
<path d="M33.9398 13.7419C33.8186 13.8499 33.8186 13.9219 33.9095 13.9219C34.0913 13.9219 34.3035 13.6939 34.1974 13.6099C34.1671 13.5859 34.0459 13.6339 33.9398 13.7419Z" fill="white"/>
<path d="M35.0911 13.6593C35.0457 13.7193 34.9699 13.9953 34.9093 14.2833C34.8487 14.5713 34.682 14.8953 34.5153 15.0273C34.2123 15.2673 34.1669 15.3633 34.3941 15.3633C34.6517 15.3633 34.9699 14.8473 35.1214 14.1873C35.2578 13.5753 35.2578 13.4553 35.0911 13.6593Z" fill="white"/>
<path d="M32.4245 13.9235C32.1215 13.9955 32.1063 14.0195 32.3488 14.0195C32.5154 14.0195 32.8639 13.9715 33.1063 13.9235C33.5154 13.8395 33.5154 13.8275 33.1821 13.8275C32.97 13.8275 32.6366 13.8755 32.4245 13.9235Z" fill="white"/>
<path d="M37.3034 14.1273C37.4094 14.3433 37.5761 14.5473 37.6822 14.5713C37.9852 14.6673 37.9246 14.4993 37.5004 14.1033L37.1367 13.7433L37.3034 14.1273Z" fill="white"/>
<path d="M31.394 15.4824C31.394 15.6504 31.4243 15.7104 31.4698 15.6264C31.5001 15.5544 31.5001 15.4104 31.4698 15.3264C31.4243 15.2544 31.394 15.3144 31.394 15.4824Z" fill="white"/>
<path d="M33.6062 15.3258C33.6971 15.3497 33.8789 15.3497 33.985 15.3258C34.0759 15.2898 34.0001 15.2658 33.788 15.2658C33.5759 15.2658 33.5001 15.2898 33.6062 15.3258Z" fill="white"/>
<path d="M35.2273 15.6013C35.1667 15.8173 34.9849 16.0933 34.8182 16.2253C34.4849 16.4893 34.5606 16.6813 34.9243 16.4413C35.1515 16.2853 35.5303 15.3853 35.4091 15.2773C35.3637 15.2533 35.2879 15.3973 35.2273 15.6013Z" fill="white"/>
<path d="M32.8488 15.447C32.9548 15.483 33.0912 15.471 33.1366 15.435C33.1972 15.399 33.1063 15.363 32.9397 15.375C32.773 15.375 32.7275 15.411 32.8488 15.447Z" fill="white"/>
<path d="M31.5456 16.0226C31.5305 16.1546 31.6214 16.6346 31.7274 17.1026C31.8941 17.7746 31.9395 17.8466 31.9395 17.4626C31.9395 16.9706 31.5608 15.5786 31.5456 16.0226Z" fill="white"/>
<path d="M35.5607 16.5843C35.4244 16.9323 35.3334 17.2323 35.3637 17.2563C35.3941 17.2803 35.5456 17.0163 35.6819 16.6803C35.8183 16.3443 35.9092 16.0443 35.8789 16.0203C35.8486 15.9843 35.6971 16.2483 35.5607 16.5843Z" fill="white"/>
<path d="M33.682 16.525C33.8183 16.549 34.0305 16.549 34.1365 16.525C34.2274 16.489 34.1214 16.465 33.8638 16.465C33.6214 16.465 33.5305 16.489 33.682 16.525Z" fill="white"/>
<path d="M33.0001 16.6462C33.1062 16.6822 33.2425 16.6702 33.288 16.6342C33.3486 16.5982 33.2577 16.5622 33.091 16.5742C32.9244 16.5742 32.8789 16.6102 33.0001 16.6462Z" fill="white"/>
<path d="M34.9699 17.5708C34.682 17.7388 34.6214 17.8828 34.8183 17.8828C34.8789 17.8828 35.0153 17.7748 35.1214 17.6428C35.3335 17.3668 35.3183 17.3548 34.9699 17.5708Z" fill="white"/>
<path d="M33.1821 17.8931C32.8942 17.9651 32.9852 17.9891 33.5306 17.9411C33.9397 17.9051 34.2427 17.9411 34.2427 18.0011C34.2427 18.0731 34.3185 18.1211 34.3942 18.1211C34.4852 18.1211 34.5458 18.0371 34.5458 17.9411C34.5458 17.7371 33.8185 17.7131 33.1821 17.8931Z" fill="white"/>
<path d="M31.9697 18.3005C31.9697 18.3965 32 18.4805 32.0303 18.4805C32.0606 18.4805 32.1212 18.3965 32.1818 18.3005C32.2273 18.2045 32.197 18.1205 32.1212 18.1205C32.0303 18.1205 31.9697 18.2045 31.9697 18.3005Z" fill="white"/>
<path d="M34.0607 18.6853C34.1667 18.7213 34.3031 18.7093 34.3485 18.6733C34.4092 18.6373 34.3182 18.6013 34.1516 18.6133C33.9849 18.6133 33.9395 18.6493 34.0607 18.6853Z" fill="white"/>
</svg>
